<?xml version="1.0" encoding="UTF-8" standalone="no"?>
<!-- Created with Inkscape (http://www.inkscape.org/) -->

<svg
   width="300"
   height="346"
   viewBox="0 0 79.374997 91.545836"
   version="1.1"
   id="svg5"
   xml:space="preserve"
   xmlns="http://www.w3.org/2000/svg"
   xmlns:svg="http://www.w3.org/2000/svg"
   xmlns:rdf="http://www.w3.org/1999/02/22-rdf-syntax-ns#"
   xmlns:cc="http://creativecommons.org/ns#"
   xmlns:dc="http://purl.org/dc/elements/1.1/"><title
     id="title4680">Bangladesh Technical Education Board - বাংলাদেশ কারিগরি শিক্ষা বোর্ড</title><defs
     id="defs2" /><g
     id="layer1"
     transform="matrix(0.5447314,0,0,0.5447314,67.263865,6.7202825)"><g
       id="g4642"
       transform="translate(-156.10417,16.304743)"><path
         id="path1054"
         style="color:#000000;fill:#d70c0b;fill-opacity:1;paint-order:stroke fill markers"
         d="m 105.48038,-28.180192 a 100.75671,100.75671 0 0 1 -1.26969,1.720308 V 40.26886 l -7.610902,-57.809908 a 100.75671,100.75671 0 0 1 -1.27279,1.27279 L 103.35131,44.68151 88.661255,-10.1415 a 100.75671,100.75671 0 0 1 -1.201477,1.0340456 L 101.96845,45.041178 81.418803,-4.5707804 a 100.75671,100.75671 0 0 1 -1.203544,0.8294067 L 100.64657,45.585848 74.307609,-0.03565674 73.069442,0.67954508 99.408919,46.300016 66.905993,3.942395 A 100.75671,100.75671 0 0 1 65.586177,4.5702637 L 98.276688,47.172831 58.636731,7.5333903 A 100.75671,100.75671 0 0 1 57.140698,8.0568725 L 97.273649,48.19034 48.501949,10.766268 a 100.75671,100.75671 0 0 1 -1.738912,0.466121 L 93.022229,46.728414 35.233508,13.364042 a 100.75671,100.75671 0 0 1 -2.124418,0.239262 100.75671,100.75671 0 0 1 0.855245,1.95957 L 91.753056,48.927246 37.882442,26.613879 a 100.75671,100.75671 0 0 1 0.466122,1.738395 L 95.14458,51.87797 40.32157,37.188428 a 100.75671,100.75671 0 0 1 0.295072,1.557527 L 94.764758,53.255664 41.524597,46.245756 a 100.75671,100.75671 0 0 1 0.116789,1.457275 l 52.934236,6.969601 -52.678955,-5.17e-4 5.17e-4,1.429887 52.677921,-5.17e-4 -52.934236,6.9696 a 100.75671,100.75671 0 0 1 -0.116272,1.456759 L 94.764758,57.518453 40.616125,72.027645 A 100.75671,100.75671 0 0 1 40.32157,73.585172 L 95.14458,58.89563 38.348564,82.421325 a 100.75671,100.75671 0 0 1 -0.465605,1.738912 L 91.753056,61.846871 33.964335,95.211242 a 100.75671,100.75671 0 0 1 -0.855245,1.959054 100.75671,100.75671 0 0 1 2.124418,0.239262 L 93.022229,64.045186 46.763037,99.541211 a 100.75671,100.75671 0 0 1 1.738912,0.466119 l 48.7717,-37.42407 -40.132951,40.13347 a 100.75671,100.75671 0 0 1 1.496033,0.52348 L 98.276688,63.600769 65.586177,106.20334 a 100.75671,100.75671 0 0 1 1.319816,0.62786 L 99.408919,64.473584 73.069442,110.09405 74.307609,110.80926 100.64657,65.187752 80.215259,114.51497 a 100.75671,100.75671 0 0 1 1.203544,0.82941 L 101.96845,65.732422 87.459778,119.88105 a 100.75671,100.75671 0 0 1 1.201477,1.03405 l 14.690055,-54.82301 -8.024312,60.94977 a 100.75671,100.75671 0 0 1 1.27279,1.27279 l 7.610902,-57.80991 v 66.72874 a 100.75671,100.75671 0 0 1 1.26969,1.72031 100.75671,100.75671 0 0 1 1.26969,-1.72031 V 70.50474 l 7.61091,57.80991 a 100.75671,100.75671 0 0 1 1.27279,-1.27279 l -8.02432,-60.94977 14.69006,54.82301 a 100.75671,100.75671 0 0 1 1.20148,-1.03405 l -14.50868,-54.148628 20.54965,49.611958 a 100.75671,100.75671 0 0 1 1.20355,-0.82941 l -20.43131,-49.327218 26.33896,45.621508 1.23816,-0.71521 -26.33947,-45.620466 32.50292,42.357616 a 100.75671,100.75671 0 0 1 1.31982,-0.62786 l -32.69051,-42.602571 39.63996,39.639441 a 100.75671,100.75671 0 0 1 1.49603,-0.52348 l -40.13295,-40.13347 48.7717,37.42407 a 100.75671,100.75671 0 0 1 1.73891,-0.466119 l -46.25919,-35.496025 57.78872,33.364372 a 100.75671,100.75671 0 0 1 2.12442,-0.239262 100.75671,100.75671 0 0 1 -0.85525,-1.959054 l -57.78872,-33.364371 53.8701,22.313366 A 100.75671,100.75671 0 0 1 172.6122,82.421325 L 115.81619,58.89563 170.6392,73.585172 a 100.75671,100.75671 0 0 1 -0.29456,-1.557527 l -54.14863,-14.509192 53.24016,7.009391 a 100.75671,100.75671 0 0 1 -0.11627,-1.456759 l -52.93424,-6.9696 52.67792,5.17e-4 5.2e-4,-1.429887 -52.67896,5.17e-4 52.93424,-6.969601 a 100.75671,100.75671 0 0 1 0.11679,-1.457275 l -53.24016,7.009908 54.14811,-14.509709 a 100.75671,100.75671 0 0 1 0.29508,-1.557527 L 115.81619,51.87797 172.6122,28.352274 a 100.75671,100.75671 0 0 1 0.46612,-1.738395 l -53.87061,22.313367 57.78872,-33.364372 a 100.75671,100.75671 0 0 1 0.85525,-1.95957 100.75671,100.75671 0 0 1 -2.12442,-0.239262 l -57.78872,33.364372 46.25919,-35.496025 a 100.75671,100.75671 0 0 1 -1.73891,-0.466121 L 113.68712,48.19034 153.82007,8.0568725 A 100.75671,100.75671 0 0 1 152.32404,7.5333903 L 112.68408,47.172831 145.37459,4.5702637 A 100.75671,100.75671 0 0 1 144.05477,3.942395 L 111.55185,46.300016 137.89132,0.67954508 136.65316,-0.03565674 110.3142,45.585848 130.74551,-3.7413737 a 100.75671,100.75671 0 0 1 -1.20355,-0.8294067 L 108.99231,45.041178 123.50099,-9.1074544 A 100.75671,100.75671 0 0 1 122.29951,-10.1415 l -14.69006,54.82301 8.02432,-60.949768 a 100.75671,100.75671 0 0 1 -1.27279,-1.27279 l -7.61091,57.809908 v -66.728744 a 100.75671,100.75671 0 0 1 -1.26969,-1.720308 z" /><g
         id="g4599"><path
           id="path7124"
           style="fill:#ffffff;fill-opacity:1;fill-rule:evenodd;stroke:#d70c0b;stroke-width:1.42981;stroke-opacity:1;stop-color:#000000"
           d="M 152.76452,55.386796 A 47.284138,47.284138 0 0 1 105.48038,102.67094 47.284138,47.284138 0 0 1 58.19625,55.386796 47.284138,47.284138 0 0 1 105.48038,8.1026581 47.284138,47.284138 0 0 1 152.76452,55.386796 Z" /><path
           id="path354"
           style="font-variation-settings:normal;fill:#036f0e;fill-opacity:1;fill-rule:evenodd;stroke:none;stroke-width:0.264583;stroke-linecap:butt;stroke-linejoin:miter;stroke-miterlimit:4;stroke-dasharray:none;stroke-dashoffset:0;stroke-opacity:1;stop-color:#000000"
           d="m 106.1992,12.71912 c -0.24995,-0.0012 -0.48835,0.01227 -0.71882,0.03979 -0.50735,0.06059 -0.97924,0.190354 -1.45055,0.38964 -0.23799,0.100645 -0.47711,0.219303 -0.72089,0.356568 -0.001,2.61e-4 -0.002,7.72e-4 -0.003,0.001 -7.1e-4,5.25e-4 -5.5e-4,9.5e-4 -0.002,0.0015 -0.25132,0.147273 -0.46903,0.299341 -0.65216,0.454236 -0.52867,0.447161 -0.77174,0.91585 -0.73794,1.380795 0.0256,0.352063 0.43234,0.600702 0.83199,0.812353 -0.62335,0.04296 -1.24563,0.100589 -1.86655,0.173116 -0.25669,0.02998 -0.51336,0.06263 -0.76946,0.09767 0.28104,0.147466 0.55911,0.297734 0.83354,0.451135 0.23178,0.129547 0.46081,0.26117 0.68781,0.394808 0.41167,-0.04105 0.82393,-0.07508 1.23662,-0.102836 0.0397,-0.0027 0.0797,-0.0053 0.11937,-0.0078 l 0.42116,6.553089 c 0.34308,0.255967 0.67808,0.517383 1.00511,0.783931 0.0713,0.05815 0.14235,0.116548 0.21291,0.175183 l -0.20567,-7.577832 c 0.26321,-0.0073 0.62705,-0.01447 1.05988,-0.01447 0.36766,-2e-6 0.71298,0.0049 1.03353,0.01344 0.0663,0.0018 0.12935,0.0038 0.18913,0.0057 0.36919,0.01204 0.70234,0.166881 1.00408,0.455269 0.0899,0.08595 0.17745,0.183485 0.262,0.293006 -0.0946,0.02617 -0.19015,0.04995 -0.28319,0.07958 -0.0606,0.0193 -0.12009,0.04114 -0.17725,0.0677 -0.22579,0.104903 -0.42693,0.231769 -0.60203,0.378271 -10e-4,6.94e-4 -0.002,0.0014 -0.003,0.0021 -10e-4,9.37e-4 -0.002,0.0017 -0.003,0.0026 -0.16402,0.147891 -0.29651,0.312312 -0.39739,0.490409 -2.4e-4,9.69e-4 -8e-4,0.0016 -10e-4,0.0026 -6.6e-4,7.13e-4 -5.5e-4,0.0014 -0.002,0.0021 -0.0126,0.02412 -0.0247,0.04842 -0.0357,0.07286 -0.0679,0.151584 -0.10314,0.30892 -0.10697,0.469222 -0.004,0.150029 0.0249,0.295731 0.0832,0.434599 0.0552,0.131601 0.13739,0.257322 0.24443,0.375171 9e-4,0.001 0.002,0.0021 0.003,0.0031 0.001,0.001 0.002,0.0021 0.004,0.0031 0.21686,0.21784 0.50802,0.355095 0.83768,0.394808 0.0323,0.0039 0.0651,0.0068 0.0982,0.0088 0.62268,0.03785 1.10956,-0.192443 1.4795,-0.585494 0.019,-0.02014 0.0375,-0.04051 0.0558,-0.06149 0.0951,0.217552 0.21081,0.403642 0.37207,0.540535 0.18375,0.155972 0.56451,0.34167 0.93121,0.382923 0.19291,0.02172 0.36678,0.01689 0.52193,-0.0083 0.23201,-0.03758 0.42202,-0.120693 0.56637,-0.227376 0.26305,-0.194392 0.47558,-0.469552 0.49868,-0.799951 0.0222,-0.317563 -0.10199,-0.488775 -0.28887,-0.748275 -0.103,-0.143038 -0.24614,-0.294132 -0.42375,-0.448034 -0.1423,-0.1233 -0.30646,-0.248318 -0.48989,-0.372071 0.0961,-0.173659 0.32567,-0.264918 0.59273,-0.275435 0.0926,-0.0036 0.18931,0.0024 0.28629,0.01809 0.28191,0.04537 0.6192,0.273714 0.94774,0.747241 0.0549,0.08262 0.1036,0.162356 0.14625,0.238228 0.21181,0.376794 0.2784,0.669507 0.23771,0.86093 -0.33976,1.489792 -0.67663,2.980023 -1.01079,4.471044 0.22797,0.296059 0.44857,0.59446 0.66197,0.895036 0.0877,0.123514 0.17419,0.247342 0.25942,0.371554 l 1.85673,-7.402132 c 0.46136,0.115728 0.92048,0.240146 1.37718,0.373104 0.16141,0.04699 0.32291,0.09505 0.48369,0.144177 0.1868,0.05708 0.37272,0.115745 0.55862,0.1757 0.036,0.03084 0.0783,0.0699 0.13178,0.134358 0.0619,0.07457 0.11692,0.155408 0.16485,0.243396 9.7e-4,0.0014 0.002,0.0027 0.003,0.0041 9.7e-4,0.0014 0.002,0.0027 0.003,0.0041 0.049,0.07866 0.0858,0.1564 0.11214,0.234611 0.0159,0.04734 0.0118,0.05911 0.0124,0.0801 -0.12225,-0.02649 -0.24226,-0.05608 -0.37672,-0.06873 -0.004,-3.08e-4 -0.008,-2.1e-4 -0.0124,-5.16e-4 -0.004,-1.2e-5 -0.008,-5.07e-4 -0.0119,-5.17e-4 -0.36622,-9.15e-4 -0.67193,0.07524 -0.89814,0.218074 -0.15736,0.09936 -0.27606,0.231225 -0.3514,0.392225 -0.001,0.0022 -0.003,0.004 -0.004,0.0062 l -0.002,0.0072 c -0.0865,0.2591 -0.0856,0.511333 0.007,0.74104 0.0374,0.09255 0.0897,0.181412 0.15761,0.266134 0.22284,0.278095 0.53142,0.48756 0.9002,0.61495 0.0992,0.03425 0.19889,0.05938 0.29818,0.07493 0.24588,0.0385 0.48997,0.01992 0.71726,-0.05478 0.28823,-0.09453 0.48733,-0.262635 0.60565,-0.478007 0.0777,-0.04134 0.21593,-0.0291 0.3359,0.01757 0.29188,0.113284 0.48491,0.28784 0.61495,0.549321 4e-4,7e-4 8.3e-4,0.0014 10e-4,0.0021 4.1e-4,7e-4 8.5e-4,0.0014 0.001,0.0021 0.1341,0.257173 0.14795,0.481068 0.0522,0.701249 -0.0366,0.08413 -0.0969,0.150427 -0.15761,0.20929 -0.35275,-0.156649 -0.71119,-0.238514 -1.05162,-0.198955 -0.4062,0.04722 -0.69179,0.263182 -0.81649,0.591696 -0.10491,0.276359 -0.0758,0.571284 0.0811,0.851627 7.5e-4,0.0013 0.002,0.0028 0.002,0.0041 7.5e-4,0.0013 0.002,0.0028 0.002,0.0041 0.16938,0.272482 0.42542,0.485082 0.74414,0.620634 0.25042,0.1065 0.48934,0.147168 0.71469,0.133326 0.23927,-0.0147 0.46342,-0.09128 0.66559,-0.217041 0.77608,0.79297 0.76582,1.6365 0.67489,2.465999 -0.0231,0.210748 -0.0518,0.422585 -0.076,0.636137 0.0949,0.330294 0.18368,0.660507 0.26613,0.99012 l 2.73317,-4.759916 c 0.17608,0.05481 0.36097,0.122608 0.57361,0.249597 0.19667,0.117447 0.37555,0.243293 0.53227,0.379822 0.11369,0.09904 0.21571,0.204067 0.30437,0.315226 0.29393,0.368617 0.31709,0.595836 0.21704,0.763261 -0.0277,0.04705 -0.0666,0.07849 -0.11834,0.0894 -0.12994,-0.323765 -0.32587,-0.614045 -0.63769,-0.790132 -0.003,-0.0017 -0.006,-0.0036 -0.009,-0.0052 -0.56778,-0.314332 -1.09338,-0.09059 -1.31413,0.287321 -0.16179,0.276963 -0.13056,0.796864 0.37052,1.250053 0.0804,0.07272 0.17284,0.143902 0.27905,0.212907 0.49185,0.319824 0.9836,0.336896 1.3038,0.253731 0.33261,-0.08388 0.62177,-0.287259 0.8692,-0.599447 l 0.002,-0.0026 0.002,-0.0021 c 0.32284,-0.458986 0.34711,-1.034661 0.0873,-1.685686 -0.15069,-0.377626 -0.42453,-0.7484 -0.75086,-1.05885 -0.22664,-0.215608 -0.47583,-0.39997 -0.72192,-0.536401 -0.18238,-0.100836 -0.29195,-0.151771 -0.42065,-0.213424 l 0.41961,-0.732772 c 0.40424,0.231366 0.80442,0.470282 1.19993,0.716236 0.4841,0.301034 0.96129,0.612543 1.43144,0.934826 0.17502,0.119977 0.33139,0.258369 0.47077,0.416513 0.0266,0.03019 0.0526,0.06084 0.078,0.0925 5.4e-4,9.86e-4 0.001,0.0021 0.002,0.0031 9.8e-4,9.54e-4 0.002,0.0021 0.003,0.0031 0.15322,0.184242 0.26499,0.372195 0.33951,0.567407 l 0.002,0.0047 0.002,0.0057 c 0.0852,0.190698 0.11976,0.374415 0.10645,0.559139 -0.0131,0.182623 -0.0774,0.350581 -0.1974,0.507979 l -3.20653,4.202845 c 0.0871,0.461938 0.16246,0.922252 0.22635,1.380277 0.006,0.04281 0.0118,0.08591 0.0176,0.128674 l 4.82192,-5.870442 c 0.55145,0.452961 1.09001,0.921175 1.61541,1.404048 -0.11171,-0.564094 -0.23794,-1.130412 -0.37931,-1.698087 -0.22127,-0.189082 -0.44482,-0.375497 -0.67024,-0.559656 -0.002,-0.007 -0.003,-0.01429 -0.005,-0.02119 -0.10608,-0.482312 0.0691,-0.78971 0.21032,-1.107943 -0.11409,-0.29125 -0.23208,-0.581998 -0.3545,-0.872815 -0.46825,0.573703 -0.80851,1.173866 -1.19682,1.771985 -0.0283,-0.49469 -0.3708,-1.008953 -0.7922,-1.378727 -0.0807,-0.07083 -0.16403,-0.136195 -0.24805,-0.19482 -0.56915,-0.397125 -1.14896,-0.779121 -1.73839,-1.145667 -0.7292,-0.453459 -1.4734,-0.883012 -2.23088,-1.287777 -0.77492,-0.414081 -1.56355,-0.802131 -2.36471,-1.163236 -0.97587,-0.439856 -1.96981,-0.839542 -2.97863,-1.19786 -0.54827,-0.194733 -1.10082,-0.37722 -1.65726,-0.547253 -0.47875,-0.146296 -0.96037,-0.283579 -1.44436,-0.411345 -0.56844,-0.150059 -0.72729,-0.655638 -0.64492,-0.962215 -0.0179,-0.01884 -0.0358,-0.03752 -0.0537,-0.05633 -0.2813,-0.294397 -0.56872,-0.58613 -0.863,-0.874365 -0.14859,0.988007 -0.30165,1.975678 -0.45889,2.962093 -0.11824,-0.242127 -0.19382,-0.467867 -0.42219,-0.774113 -0.0159,-0.02136 -0.0325,-0.04333 -0.0501,-0.06563 -2.8e-4,-5.6e-5 -7.5e-4,5.7e-5 -0.001,0 l 5.1e-4,-5.17e-4 c -0.46531,-0.582798 -0.89479,-0.949568 -1.36994,-1.053166 -0.0257,-0.0056 -0.0515,-0.0104 -0.0775,-0.01447 -0.83728,-0.130899 -1.58511,0.07805 -2.19367,0.550354 -0.13913,0.107982 -0.27078,0.229643 -0.39532,0.364319 -0.13287,-0.297348 -0.33497,-0.58095 -0.67438,-0.819588 -0.17609,-0.123812 -0.36306,-0.227272 -0.55862,-0.309542 -0.32689,-0.13752 -0.67772,-0.215142 -1.04232,-0.22686 -0.0687,-0.0022 -0.13431,-0.004 -0.19637,-0.0057 -0.55167,-0.01504 -0.98545,-0.01493 -1.0604,-0.01499 -0.40932,-3.13e-4 0.44893,-0.03761 -1.35134,0.02119 -0.0542,0.0018 -0.11094,0.0035 -0.17001,0.0057 -0.1094,-0.169797 -0.22021,-0.339097 -0.33228,-0.507979 -0.2274,-0.342689 -0.0196,-0.709151 0.45062,-1.021643 0.35327,-0.234753 0.84853,-0.434091 1.40301,-0.564307 0.35982,-0.08448 0.74081,-0.139326 1.11983,-0.157096 0.20393,-0.0095 0.4063,-0.0079 0.60358,0.0047 0.24739,0.01586 0.48521,0.041 0.71417,0.07441 0.65175,0.09513 1.23388,0.25755 1.76268,0.468188 0.80135,0.319214 1.49172,0.75291 2.14147,1.250053 0.26313,0.201333 0.52138,0.414419 0.77877,0.636137 0.005,-0.248607 0.01,-0.496942 0.0134,-0.745691 -0.21232,-0.22825 -0.43678,-0.444433 -0.67231,-0.647505 -0.65479,-0.564546 -1.39006,-1.026267 -2.17196,-1.376144 -0.581,-0.259973 -1.1839,-0.456762 -1.79369,-0.588078 -0.4488,-0.09665 -0.89972,-0.157674 -1.34668,-0.182934 -0.0722,-0.0041 -0.14464,-0.0071 -0.21653,-0.0093 4.6e-4,-5.75e-4 9.7e-4,-0.001 0.001,-0.0015 h -5.2e-4 -5.2e-4 v 5.16e-4 h -5.1e-4 c -0.0718,-0.0021 -0.1435,-0.0033 -0.21498,-0.0036 z m -16.181439,3.783748 c -0.497123,-0.0038 -0.993104,0.03404 -1.481047,0.111105 -0.922677,0.145721 -1.805844,0.430627 -2.604492,0.833541 -7.92e-4,-5.54e-4 -0.0018,-9.51e-4 -0.0026,-0.0016 v 5.17e-4 c -0.06433,0.03253 -0.128073,0.06574 -0.191203,0.09974 -0.0972,0.05224 -0.190802,0.105531 -0.281636,0.160713 -0.653097,0.396764 -1.15603,0.876293 -1.598869,1.487248 -0.09832,0.135644 -0.19398,0.278403 -0.287838,0.428398 -8.4e-4,7.59e-4 -0.0013,0.0018 -0.0021,0.0026 -3.78e-4,8.04e-4 -0.0012,0.0013 -0.0016,0.0021 -0.585097,0.971911 -0.680344,1.752014 -0.341581,2.277897 0.191213,0.296725 0.667463,0.319447 1.119828,0.313676 -0.281981,0.180015 -0.56161,0.363792 -0.838708,0.55087 -0.271715,0.183445 -0.541039,0.369967 -0.80822,0.560173 -0.38594,0.274751 -0.682577,-0.08276 -0.790649,-0.35295 -0.0085,-0.02948 -0.01687,-0.05887 -0.02532,-0.08837 -0.432624,0.01195 -0.868052,0.03151 -1.305346,0.05891 l 0.232027,0.301274 c 0.164903,0.214514 0.350553,0.447692 0.560689,0.700732 6.76e-4,4.03e-4 0.0015,6.39e-4 0.0021,10e-4 l 0.0021,0.0026 c 0.217886,0.244201 0.460506,0.522279 0.728638,0.834057 l 0.001,10e-4 c 0.247259,0.276186 0.494012,0.552694 0.740007,0.829923 -0.272806,-0.108111 -0.532459,-0.196565 -0.771529,-0.255281 -0.186421,-0.04578 -0.360058,-0.07312 -0.516764,-0.07751 -3.56e-4,1.8e-5 -6.45e-4,-1.8e-5 -0.001,0 l -5.17e-4,-5.17e-4 c -0.715242,-0.01508 -1.475127,0.273097 -2.207617,0.851628 -0.102823,0.08121 -0.20515,0.168014 -0.306441,0.260449 -0.331964,0.30294 -0.617027,0.63413 -0.851628,0.98547 -0.02757,0.04007 -0.05403,0.08019 -0.0801,0.120923 -0.195645,0.305686 -0.348834,0.62962 -0.457853,0.966866 -5.5e-5,3.51e-4 5.6e-5,6.36e-4 0,0.001 -5.1e-5,3.51e-4 -4.66e-4,6.36e-4 -5.17e-4,10e-4 -0.07942,0.252337 -0.120254,0.487599 -0.132292,0.706933 -0.06283,0.01236 -0.125737,0.02499 -0.188619,0.03772 -0.497206,0.100645 -0.996083,0.212783 -1.496033,0.336414 -0.237532,0.272392 -0.471263,0.548001 -0.701249,0.826823 -0.499747,0.605868 -0.981579,1.226713 -1.444356,1.861385 -0.395774,0.54278 -0.777587,1.095402 -1.14515,1.65778 -0.440762,0.674373 -0.860776,1.362619 -1.259354,2.062923 -0.308373,0.54181 -0.60401,1.09096 -0.886251,1.646928 -0.110301,0.217273 -0.218298,0.435441 -0.324528,0.65474 -0.201344,0.01689 -0.403338,0.03506 -0.605131,0.05478 -0.551643,0.05391 -0.771865,-0.615708 -0.684196,-1.529106 0.05828,-0.607261 0.251753,-1.301623 0.555005,-1.934765 0.08595,-0.179446 0.180141,-0.35245 0.281636,-0.516248 0.381313,-0.615399 0.79491,-1.122903 1.227315,-1.547192 0.562636,-0.552075 1.163975,-0.970162 1.793173,-1.313615 0.530303,-0.289473 1.087418,-0.530121 1.667081,-0.753959 -0.216752,-0.121856 -0.433566,-0.24315 -0.651123,-0.363802 -0.580294,0.153092 -1.141184,0.368105 -1.674833,0.63717 -0.690396,0.348094 -1.330775,0.785039 -1.90376,1.291394 -0.67402,0.595644 -1.248616,1.28121 -1.700154,2.019515 -0.07855,0.128428 -0.153452,0.258536 -0.224276,0.38964 -0.270903,0.501513 -0.447911,0.988092 -0.551904,1.491899 -0.09319,0.451472 -0.128655,0.922314 -0.116789,1.435571 -1.77e-4,8.6e-4 -3.41e-4,0.0017 -5.17e-4,0.0026 1.73e-4,7.78e-4 3.43e-4,0.0014 5.17e-4,0.0021 0.02098,0.520177 0.106605,0.95208 0.24753,1.289327 0.165956,0.397172 0.408517,0.664752 0.719336,0.802018 0.230994,0.102046 0.505501,0.0063 0.779281,-0.147794 0.110193,-0.06204 0.220869,-0.133676 0.328662,-0.206706 -0.04369,0.09782 -0.08682,0.195862 -0.129708,0.294039 -0.254605,0.582897 -0.495027,1.171654 -0.720886,1.7663 -0.256671,0.146972 -0.612089,0.220546 -1.077971,0.168982 -0.01932,-0.0021 -0.03856,-0.0041 -0.05788,-0.0062 -0.217561,0.181917 -0.434017,0.367141 -0.649056,0.555522 -0.02249,0.0197 -0.04472,0.03914 -0.06718,0.05891 0.516457,0.194365 1.015072,0.316027 1.516187,0.438216 0.17925,0.04371 0.358539,0.08777 0.542602,0.135392 -0.01795,0.01078 -0.03551,0.02135 -0.05323,0.03256 -0.509393,0.32217 -0.926191,0.824977 -1.153935,1.610754 -0.01432,0.04942 -0.02876,0.09883 -0.04289,0.148311 -0.208884,0.731522 -0.395928,1.469352 -0.561723,2.211752 -0.141599,0.634054 -0.267392,1.271322 -0.377238,1.911511 -0.139206,0.811333 -0.253096,1.626708 -0.341065,2.444812 -0.07269,0.676077 -0.127622,1.353841 -0.165364,2.032434 -0.04107,0.738448 -0.06151,1.477863 -0.0615,2.216919 0,0.720866 0.01981,1.441847 0.05943,2.161625 0.312027,-0.511697 0.634017,-1.011322 0.965315,-1.4981 -0.0038,-0.221174 -0.0057,-0.442315 -0.0057,-0.663525 -4e-6,-0.720279 0.01993,-1.440582 0.05994,-2.160075 0.03677,-0.661169 0.09041,-1.321644 0.16123,-1.980241 0.05094,-0.473729 0.110742,-0.94643 0.179317,-1.418001 l 0.327112,0.04754 c 0.0461,0.495617 0.114978,0.978303 0.205672,1.44694 0.134265,0.693771 0.316125,1.355957 0.541569,1.982308 0.268853,0.746954 0.599315,1.442493 0.98547,2.081527 0.0051,0.0084 0.01042,0.01696 0.0155,0.02532 0.03278,0.05399 0.06568,0.107539 0.0987,0.161231 0.05916,-0.06252 0.118284,-0.124649 0.177767,-0.186552 0.409642,-0.4266 0.826632,-0.838842 1.250569,-1.2361 0.0034,-0.0264 0.0069,-0.05268 0.01034,-0.07906 0.02796,-0.211926 0.07095,-0.418172 0.128674,-0.618051 0.180688,-0.625667 0.506864,-1.189703 0.976168,-1.680517 0.04158,-0.04348 0.08433,-0.08634 0.128157,-0.128674 0.302324,-0.292039 0.646358,-0.542347 1.030428,-0.750859 7.91e-4,-3.81e-4 0.0013,-6.97e-4 0.0021,-10e-4 7.91e-4,-3.81e-4 0.0018,-0.0012 0.0026,-0.0016 0.376856,-0.218818 0.779044,-0.38675 1.205095,-0.506429 0.08328,-0.02269 0.153861,-0.07837 0.211873,-0.147278 0.0024,-0.0027 0.0048,-0.0056 0.0072,-0.0083 0.0017,-0.0031 0.0035,-0.0062 0.0052,-0.0093 0.02447,-0.037 0.04645,-0.07547 0.06511,-0.115238 0.01389,-0.0296 0.02592,-0.06001 0.03617,-0.09095 0.02174,-0.06577 0.04399,-0.131332 0.06615,-0.196887 l -5.78776,-1.051098 c 0.123056,-0.577931 0.31866,-1.038823 0.586527,-1.369943 0.09134,-0.112913 0.190736,-0.210962 0.299207,-0.293522 0.0012,-7.78e-4 0.0025,-0.0014 0.0036,-0.0021 0.0012,-7.79e-4 0.0025,-0.0019 0.0036,-0.0026 0.40553,-0.335892 0.791032,-0.432229 1.169438,-0.384472 -0.03984,0.04028 -0.09099,0.06618 -0.126607,0.111621 -0.121606,0.147722 -0.209047,0.333234 -0.257349,0.542086 -0.02055,0.08884 -0.03401,0.17742 -0.04031,0.264066 -0.01761,0.242094 0.02088,0.471306 0.113688,0.670243 0.126528,0.271187 0.337706,0.440351 0.596346,0.49041 0.144268,0.02792 0.289783,0.01818 0.431498,-0.02946 0.0026,-7.12e-4 0.0051,-0.0019 0.0078,-0.0026 0.0025,-0.0013 0.0053,-0.0023 0.0078,-0.0036 0.12778,-0.05862 0.246371,-0.137179 0.355017,-0.235128 0.0012,-9.73e-4 0.0024,-0.0021 0.0036,-0.0031 0.0012,-9.72e-4 0.0024,-0.0016 0.0036,-0.0026 0.107587,-0.106041 0.204351,-0.225789 0.290421,-0.357601 0.0014,-0.0016 0.0027,-0.0031 0.0041,-0.0047 0.0011,-0.0018 0.002,-0.0034 0.0031,-0.0052 0.0187,-0.03247 0.03624,-0.06549 0.05271,-0.09922 0.05463,-0.111893 0.09699,-0.23076 0.12609,-0.354501 0.05247,-0.223149 0.06759,-0.443931 0.04238,-0.656807 -3.47e-4,-0.0016 -7.28e-4,-0.0031 -0.001,-0.0047 -4.14e-4,-0.0013 -0.0012,-0.0028 -0.0016,-0.0041 -0.03344,-0.208453 -0.09479,-0.400118 -0.186035,-0.569991 -7.59e-4,-9.21e-4 -0.0018,-0.0021 -0.0026,-0.0031 -5e-4,-9.44e-4 -0.0011,-0.0017 -0.0016,-0.0026 -0.09847,-0.169144 -0.221587,-0.316333 -0.367419,-0.4408 -0.07307,-0.06236 -0.150999,-0.116344 -0.233578,-0.16123 -0.08498,-0.04619 -0.174828,-0.08302 -0.269234,-0.110071 -0.132181,-0.03788 -0.265436,-0.06504 -0.399976,-0.08113 -0.604601,-0.07229 -1.235528,0.07915 -1.869653,0.481108 -0.402071,0.240623 -0.737185,0.571182 -1.002523,0.977201 -0.262638,0.401887 -0.455795,0.876317 -0.575158,1.406116 l -0.233578,-0.04237 c 0.09005,-0.494389 0.189667,-0.986935 0.299207,-1.477429 0.160861,-0.72031 0.342678,-1.436349 0.545186,-2.146122 7.59e-4,-0.0027 0.0018,-0.0051 0.0026,-0.0078 0.06939,-0.239914 0.174831,-0.459477 0.305924,-0.674377 0.219756,-0.360267 0.615193,-0.700374 0.939995,-0.79375 0.177217,-0.05095 0.357382,-0.03764 0.544669,0.02636 l 5.002279,1.709456 c 0.01791,-0.01 0.03582,-0.02004 0.05374,-0.02997 0.430987,-0.238638 0.86417,-0.464185 1.299146,-0.676961 l -7.093624,-2.716114 c 0.209368,-0.546816 0.431741,-1.089173 0.666109,-1.62574 0.06468,-0.148085 0.130328,-0.295622 0.196887,-0.442867 l 5.983614,2.704744 c 0.471147,-0.221753 0.943957,-0.42859 1.417485,-0.62115 l -6.785632,-3.380673 c 0.04292,-0.08616 0.08665,-0.172028 0.130224,-0.257865 0.274886,-0.541478 0.562646,-1.07632 0.862997,-1.604037 0.388209,-0.682085 0.796957,-1.352304 1.226281,-2.009179 0.358026,-0.547787 0.730171,-1.086165 1.115695,-1.614889 0.209156,-0.286847 0.422226,-0.570698 0.639237,-0.851627 l 0.201538,0.155546 c -0.146744,0.334024 -0.281234,0.672529 -0.40411,1.014408 -0.229163,0.637602 -0.41644,1.287342 -0.559655,1.945618 -0.174793,0.80341 -0.283857,1.618019 -0.325562,2.437577 -0.0098,0.19219 -0.01629,0.384702 -0.0186,0.577226 -6.85e-4,0.06424 -7.34e-4,0.12864 -0.001,0.192753 0.323206,-0.08164 0.646017,-0.158515 0.968416,-0.22996 0.308933,-0.06846 0.617053,-0.132038 0.925009,-0.191203 0.0442,-0.0085 0.07825,-0.01586 0.119889,-0.0739 0.289804,-0.404332 0.59627,-0.745741 0.913639,-1.025261 0.457426,-0.402872 0.937717,-0.677184 1.430404,-0.829406 1.73e-4,-5.3e-5 3.43e-4,-9.8e-4 5.17e-4,-10e-4 0.0906,-0.02621 0.187763,-0.05029 0.291455,-0.07235 0.167495,-0.03563 0.351943,-0.06534 0.552938,-0.08837 h 0.0016 c 6.85e-4,-1.03e-4 0.0014,1.02e-4 0.0021,0 0.318266,-0.0421 0.566247,-0.04966 0.733288,-0.03204 0.0015,2.2e-5 0.0031,-2.2e-5 0.0047,0 l 0.0052,5.17e-4 c 0.166363,0.0061 0.436142,0.04938 0.790133,0.135909 1.019253,-0.09752 0.568544,-0.0519 0.957047,-0.07648 0.04488,-0.0028 0.105906,-0.0062 0.178284,-0.01034 l -5.902482,-4.908227 c 0.455401,-0.547682 0.926228,-1.082469 1.411283,-1.604037 0.03021,-0.03249 0.06011,-0.06477 0.09043,-0.09715 -0.0025,0.0621 -0.0021,0.122694 5.17e-4,0.181901 0.01926,0.423898 0.171777,0.770156 0.452685,1.02526 0.214806,0.160474 0.557651,0.259534 0.902787,0.235645 0.28871,-0.01998 0.579961,-0.125466 0.809253,-0.358118 0.211183,-0.214767 0.342034,-0.47092 0.449069,-0.730705 0.0855,-0.207518 0.155885,-0.416799 0.237711,-0.606681 0.1257,-0.291696 0.247751,-0.563546 0.486792,-0.577226 0.40159,-0.02297 0.205298,1.098394 0.02532,1.947685 -0.06829,0.322257 -0.138942,0.617546 -0.186552,0.789616 0.307771,-0.01884 0.614143,-0.03348 0.919323,-0.04341 0.283553,-0.0092 0.565849,-0.01438 0.846977,-0.01602 0.0051,-0.06438 0.01053,-0.129299 0.01602,-0.193787 0.03636,-0.414885 0.06281,-0.793829 0.07545,-1.141532 0.01014,-0.27888 0.01127,-0.535523 0.001,-0.771012 v -0.001 c -0.02057,-0.54396 -0.103926,-0.940696 -0.310059,-1.185457 -0.142295,-0.168961 -0.314807,-0.2875 -0.517797,-0.345716 -0.225371,-0.05352 -0.458118,-0.07909 -0.676445,-0.04082 -0.159082,0.02789 -0.315265,0.07195 -0.469739,0.136942 -0.289473,0.121792 -0.574613,0.318257 -0.857312,0.619601 -0.144793,0.154355 -0.284195,0.3801 -0.422196,0.582393 -0.0032,0.0047 -0.0061,0.0093 -0.0093,0.01395 -2.64e-4,-0.0082 -3.38e-4,-0.01663 -5.17e-4,-0.02481 -0.0128,-0.586858 0.195121,-1.155669 0.815454,-1.71049 0.0017,-0.0015 0.0035,-0.0032 0.0052,-0.0047 0.492106,-0.437566 1.134632,-0.64141 1.947685,-0.567924 0.355742,0.04278 0.673247,0.13375 0.95343,0.268718 l 5.17e-4,5.17e-4 c 3.42e-4,-8e-6 7.17e-4,8e-6 0.001,0 0.05737,0.02683 0.11183,0.05503 0.163814,0.08527 0.195847,0.113922 0.354004,0.2519 0.478007,0.411861 0.158762,0.204796 0.346106,0.454231 0.56379,0.752409 0.372079,0.514279 0.935978,1.265232 1.703256,2.267045 0.01141,0.01505 0.0227,0.02991 0.03411,0.04496 0.614288,0.094 1.219624,0.205756 1.814876,0.334864 l -4.560445,-6.371188 c 0.28613,-0.204779 0.575048,-0.405798 0.866614,-0.602547 0.317709,-0.21439 0.638584,-0.423994 0.962732,-0.628902 l 3.509346,5.550566 c 0.33547,0.04801 0.667803,0.101759 0.997355,0.160713 0.177114,0.03168 0.353316,0.06496 0.52865,0.09974 l -3.807519,-6.555156 c 0.408083,-0.237045 0.820521,-0.466536 1.237134,-0.68833 0.861641,-0.458717 1.741095,-0.884555 2.635498,-1.275891 0.769925,-0.33687 1.550864,-0.648095 2.341459,-0.933276 0.197242,-0.07115 0.394857,-0.140899 0.593245,-0.208773 l 0.08268,0.241329 c -0.180721,0.116683 -0.35898,0.236571 -0.534335,0.360185 -0.711585,0.501622 -1.377291,1.059322 -1.990059,1.668115 -0.690385,0.685906 -1.31195,1.435406 -1.856218,2.24069 -0.02951,0.04379 -0.05912,0.08791 -0.08837,0.131775 -0.0063,0.0095 -0.01279,0.01892 -0.01912,0.02842 0.01399,0.0049 0.0284,0.0095 0.04237,0.01447 0.60201,0.210385 1.192379,0.435758 1.770951,0.675411 0.04156,0.01723 0.07389,0.02972 0.14056,0.0041 0.423925,-0.16272 0.830362,-0.274141 1.216464,-0.33693 0.646295,-0.105106 1.235042,-0.07447 1.759582,0.07855 1.71e-4,5.2e-5 9.95e-4,-1.02e-4 0.001,0 0.22677,0.07061 0.481765,0.174604 0.761193,0.31471 0.01049,0.0053 0.02096,0.01066 0.03152,0.01602 3.96e-4,3.75e-4 6.27e-4,6.85e-4 0.001,10e-4 7.1e-4,2.63e-4 0.0014,2.54e-4 0.0021,5.17e-4 0.288526,0.140258 0.499344,0.270997 0.628902,0.377754 0.0015,7.83e-4 0.0032,0.0014 0.0047,0.0021 0.0016,0.001 0.0031,0.0021 0.0047,0.0031 0.135324,0.09679 0.336524,0.281439 0.583943,0.548804 0.503163,0.267887 0.884703,0.490669 0.993221,0.553971 L 94.39333,18.712725 c 0.129358,-0.03906 0.259355,-0.07756 0.389124,-0.115238 0.492927,-0.143108 0.988428,-0.276427 1.486731,-0.399459 0.105505,-0.02605 0.211053,-0.05134 0.316776,-0.07648 -0.124507,-0.05384 -0.24953,-0.10708 -0.375171,-0.15968 -0.400463,-0.167656 -0.806298,-0.329439 -1.218013,-0.484208 -0.165182,0.04561 -0.330488,0.09278 -0.49506,0.14056 -0.795173,0.230856 -1.582746,0.486965 -2.361613,0.767911 -0.811814,0.292837 -1.61395,0.612186 -2.404505,0.958081 -0.918368,0.401823 -1.821119,0.839025 -2.705778,1.309998 -0.555239,0.295596 -1.102991,0.60468 -1.64331,0.926558 -0.04706,-0.02564 -0.09439,-0.05151 -0.141594,-0.077 -0.130723,-0.07061 -0.262016,-0.140337 -0.393774,-0.209807 -0.289687,-0.152736 -0.344449,-0.450069 -0.221692,-0.818038 0.174597,-0.523355 0.702565,-1.172305 1.393197,-1.714107 0.355005,-0.278501 0.746523,-0.524137 1.144633,-0.708484 0.60894,-0.281979 1.190102,-0.471171 1.745113,-0.590145 1.007955,-0.21606 1.946298,-0.203674 2.865458,-0.08217 0.430231,0.05688 0.860959,0.138481 1.297078,0.233577 C 92.957169,17.393478 92.842394,17.17265 92.727282,16.952102 92.327928,16.817507 91.919843,16.713416 91.506168,16.63946 91.013317,16.55135 90.51501,16.50627 90.017887,16.502517 Z m 28.633399,2.902666 c 0.63089,0.231005 1.25552,0.478536 1.87327,0.74259 -0.0658,0.44514 -0.005,0.904838 0.19533,1.376143 0.0465,0.109544 0.10049,0.21976 0.16227,0.33073 7.8e-4,0.0014 0.002,0.0027 0.002,0.0041 8.8e-4,0.0012 0.002,0.0024 0.003,0.0036 0.35739,0.589669 0.84064,1.066814 1.41956,1.459859 l -1.00873,1.918229 c -0.0781,-0.465031 -0.24817,-0.932603 -0.58136,-1.385445 0.0891,-0.256434 0.14076,-0.531625 0.12248,-0.835091 -0.0101,-0.326476 -0.0828,-0.662618 -0.2217,-1.00459 -7.7e-4,-0.0014 -0.002,-0.0026 -0.002,-0.0041 -7.8e-4,-0.0014 -0.002,-0.0032 -0.002,-0.0047 -0.0186,-0.0392 -0.038,-0.07802 -0.0579,-0.116788 -0.14696,-0.286409 -0.32973,-0.560728 -0.54725,-0.820105 -5.3e-4,-4.45e-4 -5.5e-4,-0.0011 -0.002,-0.0016 -0.23713,-0.290523 -0.50804,-0.549106 -0.81081,-0.772046 6.2e-4,2.43e-4 0.001,2.74e-4 0.002,5.17e-4 -0.0766,-0.057 -0.15347,-0.113606 -0.23048,-0.170015 -0.0607,-0.04454 -0.14182,-0.09434 -0.22169,-0.144178 -0.0178,-0.174662 -0.0387,-0.338741 -0.0682,-0.469222 -0.01,-0.04206 -0.0168,-0.06815 -0.0258,-0.106453 -8e-5,-5.89e-4 -4.3e-4,-9.5e-4 -5.1e-4,-0.0016 z m 3.11247,1.298628 c 0.50722,0.238533 1.00913,0.488169 1.50533,0.748792 l -0.44235,0.841809 c -0.0164,-0.0079 -0.0418,-0.01538 -0.0558,-0.02274 -0.0653,-0.03418 -0.13084,-0.06801 -0.19637,-0.101802 -0.45058,-0.232336 -0.7321,-0.452135 -0.87178,-0.658875 -0.13892,-0.20561 -0.16315,-0.413012 -0.0434,-0.668176 0.0402,-0.08572 0.0866,-0.129416 0.10439,-0.13901 z m -28.124902,0.08062 1.020093,2.980696 c -0.222843,-0.130757 -0.458178,-0.245192 -0.7059,-0.342614 -0.757316,-0.297835 -1.632537,-0.436234 -2.606559,-0.387057 -0.04405,0.0022 -0.08785,0.0048 -0.132292,0.0078 0.02961,-0.03606 0.05912,-0.07175 0.08888,-0.107486 0.353138,-0.423994 0.713803,-0.819459 1.077453,-1.153418 0.247011,-0.224082 0.49911,-0.431517 0.754476,-0.627352 0.166387,-0.1276 0.334407,-0.250556 0.503845,-0.37052 z m -0.906404,3.890201 c -0.134113,0.0085 -0.270043,0.0414 -0.402043,0.09819 -5.28e-4,2.27e-4 -0.0011,2.89e-4 -0.0015,5.16e-4 -0.06367,0.02739 -0.123987,0.05907 -0.180351,0.09509 -0.177166,0.11323 -0.31538,0.26667 -0.402043,0.445968 -0.119635,0.233095 -0.122562,0.479664 -0.0186,0.701249 0.09842,0.209775 0.287361,0.361502 0.533817,0.441317 9.7e-4,9.2e-5 0.0021,-9.3e-5 0.0031,0 8.15e-4,4.3e-4 0.0013,0.0011 0.0021,0.0016 0.187606,0.05496 0.38671,0.05682 0.580843,0.0078 0.06179,-0.01563 0.122975,-0.03651 0.183452,-0.06253 0.2503,-0.107678 0.44797,-0.28806 0.56534,-0.517281 5.09e-4,-9.94e-4 10e-4,-0.0021 0.0015,-0.0031 3.39e-4,-6.62e-4 7.13e-4,-0.0014 0.001,-0.0021 0.111484,-0.233791 0.132153,-0.475209 0.04754,-0.690914 -0.08938,-0.22786 -0.270975,-0.395257 -0.522449,-0.468705 -0.125072,-0.0398 -0.257594,-0.05548 -0.391707,-0.04703 z m 41.518396,6.558256 c -0.29372,-0.0035 -0.57091,0.02293 -0.82579,0.07286 -0.76332,0.14956 -1.44398,0.531478 -1.88102,0.906405 -0.68383,0.586723 -1.10937,1.318428 -1.35134,2.108398 -0.0393,0.128201 -0.0679,0.261113 -0.0873,0.396358 -0.1138,0.79158 0.0915,1.683449 0.50281,2.243274 0.0353,0.04807 0.0717,0.09445 0.10955,0.138493 0.10075,0.11693 0.21073,0.219535 0.33021,0.306441 0.16717,0.125289 0.34143,0.220982 0.5209,0.282671 0.001,5.12e-4 0.002,10e-4 0.004,0.0016 10e-4,3.75e-4 0.003,6.83e-4 0.004,10e-4 0.18659,0.04885 0.37275,0.07663 0.55501,0.06098 0.18643,-0.01603 0.3606,-0.07722 0.51831,-0.180868 0.27004,-0.177486 0.44462,-0.429177 0.49145,-0.745174 0.0528,-0.314851 -0.0208,-0.640018 -0.21756,-0.91674 -0.0648,-0.09114 -0.13983,-0.174019 -0.22428,-0.248564 -0.0349,-0.03079 -0.0718,-0.0601 -0.10955,-0.08785 -7e-4,-5.95e-4 -5.5e-4,-0.0015 -0.002,-0.0021 -0.001,-6.71e-4 -0.002,-0.0014 -0.003,-0.0021 -0.12343,-0.08621 -0.2564,-0.150303 -0.39533,-0.191719 -3e-4,-9.6e-5 -4e-4,1.89e-4 -10e-4,0 -2.9e-4,-8.1e-5 -1.1e-4,1.23e-4 -0.001,-5.17e-4 -0.12788,-0.03854 -0.25799,-0.05239 -0.38551,-0.04392 -0.13298,0.0088 -0.23212,0.04947 -0.36794,0.139526 -0.16731,0.110929 -0.35301,0.342105 -0.31936,0.600997 -0.3993,-0.747929 0.11653,-1.744702 0.64958,-2.34766 1.04446,-1.181423 2.95494,-1.345645 4.41575,-0.592212 0.49188,0.253693 0.91073,0.603619 1.18959,1.021643 0.17471,0.261897 0.34596,0.526057 0.51418,0.7922 0.29295,0.463492 0.57622,0.933522 0.84904,1.409216 0.22894,0.399205 0.45067,0.802485 0.66508,1.209745 0.21425,0.406974 0.4207,0.818015 0.62012,1.232483 l -0.22893,0.110071 c -0.30202,-0.364368 -0.61919,-0.714045 -0.95085,-1.047998 -0.33541,-0.337748 -0.68545,-0.65909 -1.04903,-0.963249 -0.43857,-0.366884 -0.89662,-0.708317 -1.37252,-1.022676 -0.44698,-0.29526 -0.90913,-0.566582 -1.38545,-0.812354 -0.0567,-0.02903 -0.11377,-0.05817 -0.17053,-0.08682 -0.14963,0.658463 -0.3169,1.306276 -0.50178,1.942517 0.0141,0.02644 0.0279,0.0531 0.0419,0.07958 0.0201,0.03802 0.0397,0.07587 0.0589,0.113688 0.24654,0.486881 0.41417,0.957519 0.50746,1.404565 0.10004,0.4793 0.11525,0.932133 0.0517,1.355473 -0.003,0.01693 -0.005,0.03381 -0.008,0.05064 -0.0448,0.242853 -0.12188,0.521322 -0.23461,0.829407 -3.3e-4,4.36e-4 -7.1e-4,0.0011 -0.001,0.0015 -1.8e-4,7.36e-4 -3.5e-4,0.0014 -5.2e-4,0.0021 -0.10427,0.301108 -0.2214,0.540506 -0.34262,0.719853 -4.1e-4,8.29e-4 -8.6e-4,0.0018 -0.001,0.0026 -6.3e-4,9.34e-4 -0.001,0.0022 -0.002,0.0031 -0.12455,0.199057 -0.21995,0.334678 -0.26871,0.392741 -0.002,0.0023 -0.005,0.0044 -0.007,0.0067 -0.002,0.0028 -0.004,0.0061 -0.006,0.0088 -0.0428,0.06806 -0.0882,0.126876 -0.13695,0.17725 -0.007,0.0072 -0.0141,0.01447 -0.0212,0.0217 -0.13706,0.352562 -0.28026,0.700185 -0.42892,1.042831 l 7.03368,-3.075265 c 0.0116,0.02654 0.0231,0.05354 0.0346,0.0801 0.0315,0.07247 0.0624,0.14489 0.0935,0.217557 0.0993,0.232484 0.16308,0.473239 0.19069,0.725021 -7e-5,0.0011 8e-5,0.0019 0,0.0031 1.9e-4,10e-4 3.2e-4,0.002 5.1e-4,0.0031 0.0305,0.23781 0.0237,0.457184 -0.0181,0.661975 -3.1e-4,0.0019 -7.3e-4,0.0037 -0.001,0.0057 -4.3e-4,0.0016 -8.8e-4,0.0031 -0.001,0.0047 -0.0305,0.206695 -0.0999,0.380927 -0.21032,0.529684 -0.1091,0.147072 -0.25344,0.253617 -0.43925,0.321944 l -4.96146,1.824695 c -0.0271,0.06755 -0.0542,0.134884 -0.0817,0.202055 -0.16655,0.407013 -0.34145,0.807034 -0.52348,1.199926 l 7.21971,-2.360062 c 0.19471,0.59557 0.37447,1.195927 0.53951,1.800407 0.2143,0.784884 0.40336,1.5766 0.56689,2.373498 0.0543,0.264752 0.10583,0.529996 0.15451,0.795817 l -2.22209,0.406694 c -0.51184,0.09374 -0.89262,0.2709 -1.13895,0.556555 -0.22786,0.356329 -0.32405,0.793995 -0.27285,1.159102 0.0261,0.186145 0.0765,0.377023 0.1447,0.566374 0.21912,0.607976 0.63512,1.22188 1.06556,1.560628 0.14907,0.117304 0.27111,0.171097 0.38293,0.240812 -0.19788,0.215885 -0.4032,0.349421 -0.62942,0.355534 -0.30551,0.0083 -0.58317,-0.0938 -0.85163,-0.304891 -5.3e-4,-5.72e-4 -0.001,-9.5e-4 -0.002,-0.0016 -5e-4,-2.23e-4 -0.001,-8.11e-4 -0.002,-10e-4 -0.26988,-0.203074 -0.50536,-0.48514 -0.71624,-0.853694 v -5.17e-4 c -1.7e-4,-3.07e-4 -7e-4,-1.82e-4 -0.001,-5.17e-4 -0.15299,-0.27294 -0.25868,-0.557386 -0.3204,-0.862479 -0.0183,-0.09059 -0.0328,-0.183026 -0.0434,-0.277503 -1.1e-4,-8.78e-4 -4.1e-4,-0.0018 -5.2e-4,-0.0026 -1.2e-4,-8.78e-4 1.1e-4,-0.0018 0,-0.0026 -0.12813,-0.972298 0.0757,-1.786632 0.67438,-2.559016 0.10996,-0.141888 0.2333,-0.282061 0.37,-0.421163 1.4e-4,-2.97e-4 -1.5e-4,-7.37e-4 0,-10e-4 4.2e-4,-3.59e-4 8.7e-4,-6.51e-4 0.001,-0.001 0.3187,-0.331558 0.70148,-0.640304 1.15032,-0.923458 0.45035,-0.284077 0.92285,-0.525319 1.42007,-0.717269 0.0275,-0.0106 0.0552,-0.02142 0.0827,-0.03204 0.0338,-0.340053 0.0631,-0.682118 0.0873,-1.025777 0.003,-0.04606 0.006,-0.09185 0.01,-0.137976 -0.0862,0.03646 -0.17215,0.07274 -0.25838,0.109038 -0.20007,0.08409 -0.39403,0.169235 -0.58188,0.255798 -1.57303,0.724848 -2.73207,1.537854 -3.47834,2.413289 -0.23228,0.27248 -0.42545,0.554911 -0.58032,0.84646 -0.40584,0.763948 -0.54735,1.589208 -0.43047,2.498556 0.007,0.05717 0.0154,0.113774 0.0243,0.169498 0.14084,0.880288 0.48039,1.58801 1.04696,2.106332 0.0536,0.04959 0.1089,0.09712 0.16485,0.14211 0.5397,0.434221 1.19308,0.656457 1.94872,0.63407 0.24789,-0.0073 0.49477,-0.05388 0.73897,-0.141594 0.25089,-0.08739 0.48412,-0.210325 0.69815,-0.370003 0.13288,-0.08894 0.25748,-0.19304 0.37311,-0.312126 0.0796,-0.08196 0.15506,-0.170855 0.22582,-0.267167 0.17539,-0.238761 0.31568,-0.516326 0.41703,-0.82889 0.0148,-0.04564 0.0293,-0.09118 0.0439,-0.136942 -0.028,-0.03558 -0.0556,-0.07103 -0.0837,-0.106454 -0.34197,-0.433271 -0.77373,-0.689462 -1.15652,-1.019059 -0.0848,-0.07298 -0.15947,-0.143466 -0.22479,-0.216007 -0.18761,-0.208335 -0.29648,-0.430918 -0.3483,-0.769979 l 2.49649,-0.364319 c 0.0416,0.284822 0.0796,0.570089 0.11472,0.855762 0.11311,0.919131 0.19319,1.841756 0.23978,2.766239 0.0328,0.652286 0.0491,1.305489 0.0491,1.958537 0,0.08709 -4.3e-4,0.174396 -0.001,0.261483 0.0655,-0.08664 0.13094,-0.173951 0.19585,-0.261483 0.27482,-0.370273 0.54423,-0.748559 0.80822,-1.134298 -0.008,-0.291962 -0.0195,-0.583662 -0.0341,-0.875399 -0.0478,-0.948837 -0.12986,-1.896029 -0.24598,-2.83962 -0.12765,-1.037376 -0.29676,-2.070075 -0.50694,-3.094384 -0.16791,-0.818217 -0.36184,-1.631117 -0.58188,-2.437061 -0.17876,-0.654715 -0.37493,-1.304751 -0.58756,-1.949235 0.19368,-0.43033 0.48401,-0.652918 0.7798,-0.841809 0.0439,-0.222337 0.086,-0.445701 0.12609,-0.670243 0.0153,-0.08553 0.0303,-0.170994 0.045,-0.256832 -0.70239,0.234289 -1.31183,0.555972 -1.96061,0.852144 0.22219,-0.445034 0.29173,-1.090988 0.0832,-1.601969 -0.11064,-0.271156 -0.22436,-0.541173 -0.34106,-0.80977 -0.38869,-0.894528 -0.81081,-1.774243 -1.26504,-2.637048 -0.22013,-0.418129 -0.44813,-0.832474 -0.68316,-1.242302 -0.28008,-0.488361 -0.57054,-0.970619 -0.87127,-1.446423 -0.36305,-0.574384 -0.74057,-1.139243 -1.13275,-1.693953 -0.1146,-0.124528 -0.23416,-0.243348 -0.35915,-0.354501 -0.15954,-0.141894 -0.32825,-0.27058 -0.50798,-0.379822 -0.85197,-0.517811 -1.72971,-0.731843 -2.4939,-0.74104 z m -57.722058,1.822111 2.492871,1.925981 c -0.417558,0.02231 -0.839248,0.09819 -1.261939,0.22996 -0.605038,0.188614 -1.212606,0.492306 -1.809192,0.916223 -0.06788,0.04823 -0.135542,0.098 -0.203088,0.149345 0.0093,-0.08798 0.01905,-0.175794 0.02946,-0.263033 0.06015,-0.504377 0.139991,-0.99002 0.25063,-1.432471 0.04575,-0.178341 0.09566,-0.353098 0.148828,-0.525032 0.105878,-0.342423 0.225347,-0.674566 0.352434,-1.000973 z m 1.922363,3.536219 c -0.06123,0.005 -0.123413,0.01685 -0.186035,0.03617 -0.252649,0.07136 -0.477059,0.23998 -0.635104,0.480074 -0.01814,0.0276 -0.03494,0.05584 -0.05064,0.08423 -0.120865,0.218641 -0.168542,0.458028 -0.137976,0.68833 0.02825,0.260575 0.161289,0.468479 0.370003,0.596346 0.197575,0.121042 0.439038,0.142969 0.688847,0.0739 7.57e-4,-2.9e-4 0.0013,-2.27e-4 0.0021,-5.17e-4 8.74e-4,-1.8e-5 0.0017,1.8e-5 0.0026,0 0.218081,-0.06698 0.409529,-0.202523 0.554489,-0.390673 0.01884,-0.02446 0.03701,-0.05025 0.05426,-0.07648 0.149927,-0.227921 0.21561,-0.487439 0.187585,-0.743624 -2.33e-4,-9.48e-4 -2.83e-4,-0.0017 -5.16e-4,-0.0026 -1.29e-4,-6.71e-4 -3.88e-4,-0.0014 -5.17e-4,-0.0021 -0.03546,-0.256785 -0.151169,-0.470086 -0.340548,-0.603581 -0.150044,-0.105768 -0.324817,-0.15446 -0.508496,-0.139526 z m 57.464705,0.822172 c 0.15328,0.09807 0.30456,0.19721 0.45217,0.298173 0.3386,0.231603 0.65612,0.469213 0.93845,0.711584 -3e-4,-5.63e-4 -2.2e-4,-9.5e-4 -5.2e-4,-0.0015 0.0586,0.05092 0.11622,0.102348 0.17312,0.153996 0.3466,0.314607 0.66398,0.643095 0.96686,0.978235 v 5.16e-4 l -2.8391,1.365808 c 0.21037,-0.481669 0.34794,-1.006602 0.40566,-1.572513 0.0459,-0.449573 0.0413,-0.924464 -0.0176,-1.421619 -0.02,-0.168362 -0.0465,-0.339418 -0.0791,-0.51263 z m 8.76174,12.114506 c 0.048,0.32343 0.0918,0.647545 0.13178,0.972033 0.0911,0.74005 0.16148,1.482183 0.21084,2.225704 0.15832,0.202247 0.31505,0.406904 0.47025,0.613916 0.49393,0.658609 0.97176,1.341282 1.43196,2.046904 0.49446,0.759728 0.9681,1.546484 1.41852,2.359546 0.0301,-0.546468 0.0497,-1.093079 0.0589,-1.64021 -0.10748,-0.241551 -0.21717,-0.481476 -0.32867,-0.719336 -0.34063,-0.724829 -0.69916,-1.432908 -1.07487,-2.122868 -0.53241,-0.978192 -1.09919,-1.920305 -1.69653,-2.824117 -0.20385,-0.308425 -0.41135,-0.612298 -0.62219,-0.911572 z m -75.476526,0.586527 5.16e-4,5.17e-4 3.041675,0.437699 c -0.46673,0.274563 -0.890764,0.634051 -1.262972,1.079004 -0.340097,0.406568 -0.636726,0.884568 -0.881083,1.432471 -0.231154,-0.517229 -0.434598,-1.02869 -0.578776,-1.509985 -1.49e-4,-5.63e-4 -3.68e-4,-9.51e-4 -5.17e-4,-0.0016 l -5.17e-4,-5.16e-4 c -0.0084,-0.02677 -0.01676,-0.05385 -0.0248,-0.08062 -0.135639,-0.4514 -0.223837,-0.904232 -0.293522,-1.357023 z m 11.617378,27.503748 c 0.02165,0.282402 0.04725,0.566147 0.077,0.850594 0.02681,0.25629 0.05695,0.513211 0.09043,0.771012 0.191272,0.196443 0.3849,0.390617 0.580843,0.582393 0.354898,0.34735 0.717051,0.687001 1.086755,1.018543 0.394532,0.353807 0.797624,0.698456 1.208195,1.033529 0.505352,0.412425 1.022653,0.810359 1.55081,1.193208 0.09688,0.07023 0.193841,0.140084 0.291455,0.20929 l -0.142627,0.201021 c -0.115998,-0.04507 -0.232301,-0.08998 -0.348816,-0.134875 -0.642209,-0.247441 -1.289157,-0.490763 -1.950268,-0.734322 -0.544898,-0.200746 -1.09529,-0.399951 -1.65623,-0.599964 -0.532919,-0.190021 -1.071361,-0.379425 -1.621089,-0.570508 -7.13e-4,-2.48e-4 -0.232348,-0.08037 -0.233061,-0.08062 -0.06387,-0.02208 -0.127345,-0.04468 -0.191203,-0.06718 0.002,0.189608 0.0057,0.379904 0.01085,0.570508 0.01374,0.503899 0.03831,1.011094 0.07441,1.521354 0.128836,0.133547 0.252168,0.266903 0.370003,0.399975 0.434939,0.491185 0.796375,0.979456 1.094507,1.463477 0.503189,0.81693 0.826228,1.622918 0.998389,2.379183 0.107641,0.472844 0.155732,0.925959 0.150378,1.345137 0.09458,0.275001 0.192793,0.550293 0.294556,0.825273 0.05447,0.147179 0.109869,0.294183 0.166398,0.441317 l 4.063318,-6.222359 c 0.08542,0.05578 0.171434,0.110869 0.257349,0.165881 0.271893,0.174098 0.496472,0.374578 0.671276,0.593762 0.224425,0.281408 0.367646,0.595393 0.42013,0.920874 0.02911,0.180541 -0.02683,0.347753 -0.12144,0.514697 l -2.52336,4.452442 c 0.280577,0.534732 0.576438,1.067322 0.887801,1.596802 0.0057,0.0097 0.01133,0.01924 0.01705,0.02894 l 3.378605,-6.531384 c 0.28881,0.149391 0.579873,0.294539 0.872815,0.435632 0.312557,0.150543 0.627655,0.296215 0.944646,0.437183 -0.109242,0.04954 -0.20961,0.106846 -0.296623,0.173633 -0.183209,0.140621 -0.3218,0.308702 -0.410828,0.503328 -0.187493,0.409885 -0.158421,0.868764 0.105937,1.344621 0.01852,0.03334 0.03809,0.06679 0.05891,0.100252 0.317343,0.50983 0.825936,0.912425 1.47898,1.157552 0.01619,0.0061 0.0324,0.0123 0.04857,0.01809 0.604479,0.216314 1.19435,0.230056 1.699121,0.04858 l 0.0021,-5.17e-4 c 7.37e-4,-5.05e-4 0.0014,-10e-4 0.0021,-0.0015 0.08464,-0.03265 0.164078,-0.0688 0.238745,-0.108004 0.391845,-0.205742 0.644374,-0.498674 0.753959,-0.859379 0.110407,-0.363408 0.06284,-0.742728 -0.123507,-1.122412 -0.04179,-0.08515 -0.0906,-0.170015 -0.146244,-0.255281 -2.82e-4,-3.97e-4 -7.23e-4,-5.63e-4 -10e-4,-10e-4 -0.271357,-0.437587 -0.676726,-0.774357 -1.193209,-0.996322 -0.04345,-0.01868 -0.08774,-0.03668 -0.132808,-0.05374 -0.544118,-0.206037 -1.107911,-0.232447 -1.667082,-0.08785 -0.02914,0.0068 -0.05814,0.01405 -0.0863,0.0217 -0.117372,0.03188 -0.22613,0.07102 -0.326595,0.116272 -0.211933,-0.37965 -0.414627,-0.761114 -0.607715,-1.143599 -0.04956,-0.09817 -0.09844,-0.196234 -0.146761,-0.294556 -0.212419,-0.104368 -0.423409,-0.210993 -0.633553,-0.319877 -0.02078,-0.01077 -0.04177,-0.02175 -0.06253,-0.03256 -0.0977,-0.256856 -0.106351,-0.597713 0.02015,-1.031462 0.005,-0.0181 0.01,-0.03617 0.01499,-0.05426 C 90.048,83.507545 89.923146,83.263202 89.80227,83.018705 h -5.17e-4 l -0.162264,0.286804 c -0.06949,0.122479 -0.150931,0.274893 -0.242362,0.457853 -0.08749,0.175853 -0.187981,0.3866 -0.301274,0.630969 -3.23e-4,9.01e-4 -7.09e-4,0.0017 -0.001,0.0026 l -0.001,0.0021 c -0.07831,0.186332 -0.144897,0.326764 -0.213423,0.473356 -0.07704,-0.362063 -0.29339,-0.767933 -0.595313,-1.046447 -0.0719,-0.06632 -0.149147,-0.125759 -0.230994,-0.176217 -0.332103,-0.204738 -0.660282,-0.415184 -0.984952,-0.631486 -0.364144,-0.242599 -0.72371,-0.492515 -1.077971,-0.749308 -0.512912,-0.371799 -1.0151,-0.758074 -1.505851,-1.158586 -0.398714,-0.325394 -0.78992,-0.65997 -1.173055,-1.003556 -0.359023,-0.321963 -0.711105,-0.651771 -1.05575,-0.989087 -0.334677,-0.327562 -0.662376,-0.662633 -0.982885,-1.004073 -0.153476,-0.163498 -0.305124,-0.328469 -0.45527,-0.49506 z m 50.060508,0.664042 c -0.19514,0.04036 -0.38986,0.0788 -0.58446,0.115238 -0.34297,0.06416 -0.68492,0.122242 -1.02578,0.17415 -0.005,6.91e-4 -0.009,0.0014 -0.0139,0.0021 -0.0141,0.01451 -0.0282,0.02893 -0.0424,0.04341 -0.0923,0.09428 -0.1922,0.155743 -0.29301,0.191203 -0.30433,0.107049 -0.61324,-0.02248 -0.76946,-0.190169 -0.38183,0.05435 -0.76209,0.101153 -1.1405,0.140043 0.69028,0.676942 1.38329,1.350384 2.07998,2.021065 -0.29156,-0.04491 -0.48945,-0.114316 -0.91829,-0.111621 l -0.001,5.17e-4 -5.1e-4,-5.17e-4 c -0.0305,3.9e-4 -0.0602,9.28e-4 -0.0899,0.0015 -0.66692,0.01345 -1.14242,0.08334 -1.48156,0.333313 -0.0164,0.01208 -0.0324,0.02427 -0.0481,0.03721 -0.43549,0.357618 -0.72932,0.786514 -0.90021,1.282609 -0.1103,0.320169 -0.16935,0.668634 -0.17983,1.04128 -0.28499,-0.135607 -0.60346,-0.220951 -0.99012,-0.207222 -0.0394,0.0014 -0.0784,0.0035 -0.11731,0.0062 -0.48995,0.03474 -0.94575,0.177451 -1.3565,0.431498 -0.0994,0.06145 -0.19895,0.122363 -0.29921,0.182935 -0.51576,0.311597 -1.04241,0.610938 -1.57975,0.897103 -0.57974,0.308744 -1.16972,0.600807 -1.76888,0.875915 -0.62797,0.288341 -1.26384,0.556647 -1.90583,0.804602 -0.61539,0.237681 -1.23412,0.456067 -1.85518,0.654741 -0.55036,0.176057 -1.10068,0.336153 -1.65003,0.481107 -0.57798,0.152503 -1.15351,0.287663 -1.72444,0.406177 -0.31237,0.06484 -0.62292,0.124378 -0.93173,0.179317 -0.23798,0.04233 -0.47433,0.08175 -0.70952,0.118339 -0.36449,0.05672 -0.72565,0.106841 -1.08262,0.150379 -0.34353,0.0419 -0.68294,0.07762 -1.01802,0.108003 -0.19287,0.01749 -0.3844,0.03315 -0.57413,0.04703 -0.0858,-0.06583 -0.16711,-0.149863 -0.24133,-0.254765 -0.11393,-0.161065 -0.21044,-0.370012 -0.28318,-0.633553 -0.005,-0.01802 -0.0101,-0.03571 -0.015,-0.05374 -0.12633,-0.07361 -0.25217,-0.148161 -0.37672,-0.223243 -0.1101,-0.06622 -0.21912,-0.133164 -0.32763,-0.200504 h -0.002 c 0.009,0.73937 0.10614,1.353782 0.19017,2.061889 -0.0907,-0.09922 -0.19957,-0.186744 -0.31936,-0.261999 -0.30944,-0.194216 -0.69759,-0.31046 -1.05162,-0.338481 -0.0526,-0.0042 -0.10456,-0.0065 -0.15554,-0.0067 -0.49344,-0.0023 -0.9867,-0.01554 -1.4795,-0.03979 -0.53456,-0.02631 -1.06883,-0.06571 -1.60145,-0.117823 -0.35561,-0.03479 -0.71025,-0.07518 -1.06454,-0.121439 -0.45529,-0.05944 -0.90973,-0.128402 -1.362187,-0.206706 -0.404507,-0.07001 -0.807637,-0.147576 -1.209229,-0.232544 -0.531291,-0.112407 -1.059775,-0.237848 -1.584916,-0.376204 -0.538831,-0.141962 -1.074053,-0.297204 -1.60507,-0.466122 -0.145804,-0.04638 -0.291512,-0.09372 -0.436666,-0.14211 0.109736,0.154629 0.221529,0.308423 0.334863,0.461987 0.219596,0.297553 0.445949,0.593074 0.679029,0.886251 0.257985,0.07452 0.516517,0.146046 0.77618,0.214457 0.540766,0.142474 1.085356,0.271821 1.632458,0.387573 0.413548,0.0875 0.828864,0.167171 1.245402,0.239262 0.465916,0.08063 0.933136,0.151693 1.401986,0.212907 0.36482,0.04764 0.73039,0.08923 1.09657,0.125057 0.39219,0.03837 0.78544,0.0703 1.17874,0.09508 l -0.0755,1.193209 c -0.11806,-0.151023 -0.19784,-0.347689 -0.34675,-0.459921 -0.23001,-0.173331 -0.50056,-0.297038 -0.80098,-0.368969 -0.10692,-0.0256 -0.21816,-0.04507 -0.33228,-0.05736 -0.27291,-0.02937 -0.54369,0.02399 -0.80667,0.139526 -0.0487,0.02137 -0.0971,0.04475 -0.14521,0.07028 -1.8e-4,9.1e-5 1.6e-4,0.0011 0,10e-4 -0.19363,0.09831 -0.325,0.221546 -0.42065,0.357601 -0.26552,-0.27424 -0.548332,-0.511454 -0.854726,-0.699699 -0.318907,-0.195935 -0.663462,-0.338879 -1.04283,-0.417029 -0.06104,-0.01258 -0.121676,-0.023 -0.181901,-0.03152 -0.607335,-0.08589 -1.17717,0.03349 -1.670182,0.346749 l -5.17e-4,5.17e-4 c -3.8e-4,1.46e-4 -6.93e-4,3.71e-4 -10e-4,5.17e-4 -0.0759,0.04932 -0.147783,0.101028 -0.21549,0.154512 -0.359264,0.283786 -0.602897,0.627438 -0.714686,1.032495 -0.08233,0.29831 -0.08111,0.596189 -0.0036,0.891419 0.02842,0.108234 0.07183,0.214635 0.127641,0.318327 0.253967,0.471851 0.758947,0.877805 1.265039,1.154968 0.109764,0.06011 0.228637,0.113955 0.353467,0.161747 0.295198,0.113017 0.617633,0.191243 0.91674,0.243396 0.150317,0.02625 0.317861,0.04485 0.490926,0.05064 0.331427,0.01109 0.677519,-0.02623 0.947746,-0.146761 0.375463,-0.167479 0.579013,-0.436639 0.620633,-0.691431 0.0552,-0.337826 -0.0302,-0.626815 -0.28784,-0.880049 -0.213694,-0.210102 -0.555024,-0.378277 -0.901751,-0.470773 -0.07043,-0.01879 -0.141063,-0.03473 -0.211357,-0.04702 -0.332453,-0.05814 -0.726738,-0.0045 -0.976167,0.09147 -0.08677,0.03341 -0.164241,0.07319 -0.232028,0.118339 -0.159538,0.106265 -0.26416,0.243946 -0.299206,0.405143 -0.02053,0.09443 0.01177,0.242499 0.101802,0.333313 -0.252797,-0.02701 -0.424306,-0.171087 -0.51418,-0.274402 -0.154265,-0.177327 -0.223069,-0.363718 -0.166398,-0.603064 0.03476,-0.146816 0.108252,-0.273333 0.219625,-0.386539 0.126461,-0.120142 0.269202,-0.211438 0.428914,-0.276986 0.13264,-0.04895 0.271989,-0.08412 0.421163,-0.10542 0.04674,-0.0067 0.09449,-0.01204 0.143144,-0.01602 0.0015,-1.8e-4 0.0032,-3.35e-4 0.0047,-5.16e-4 0.0017,-3.71e-4 0.0035,-6.76e-4 0.0052,-0.001 0.201723,-0.02341 0.400579,-0.01534 0.609265,0.02429 0.204057,0.03875 0.392062,0.08998 0.566891,0.155546 0.256587,0.09623 0.483843,0.222773 0.690393,0.383439 l 5.2e-4,5.17e-4 c 5e-4,3.15e-4 0.001,7.2e-4 0.002,0.001 0.35848,0.272185 0.55273,0.560997 0.59532,0.90072 0.008,0.06197 0.0162,0.12407 0.0243,0.186035 7e-5,5.9e-4 -8e-5,9.5e-4 0,0.0016 0.29068,-0.03755 0.5801,-0.07862 0.86816,-0.12299 -0.01,-0.04394 -0.019,-0.08782 -0.0284,-0.131775 -0.0384,-0.177439 -0.0493,-0.314119 -0.0398,-0.399458 0.0236,-0.21313 0.10397,-0.34456 0.20567,-0.413412 0.0769,-0.05205 0.17164,-0.08068 0.31367,-0.08217 0.0465,-4.88e-4 0.098,0.0018 0.15555,0.0072 0.29121,0.02722 0.50946,0.115148 0.70745,0.290422 9.8e-4,0.001 0.002,0.002 0.003,0.0031 0.001,0.001 0.003,0.0021 0.004,0.0031 0.20967,0.169892 0.29896,0.340623 0.28577,0.546737 l -0.25321,3.957381 c 0.19207,0.127716 0.38572,0.254352 0.58135,0.379305 0.33741,0.215505 0.68007,0.426566 1.02785,0.633553 l 0.1757,-7.397481 c 0.0853,0.002 0.17051,0.0038 0.2558,0.0052 0.19083,0.0031 0.37918,0.02403 0.55862,0.06098 0.44904,0.09247 0.84898,0.287655 1.09141,0.567407 0.14424,0.166525 0.23391,0.363945 0.24236,0.588594 l 0.19223,5.114417 c 0.13171,0.07799 0.2638,0.155836 0.39688,0.232544 0.26834,0.154439 0.54,0.306209 0.81442,0.455269 0.1366,0.07421 0.27375,0.147301 0.41186,0.220142 l -0.55655,-7.332369 c 0.16522,-0.01255 0.33056,-0.02587 0.49557,-0.04082 0.35003,-0.03171 0.69915,-0.06913 1.048,-0.111621 0.37239,-0.04535 0.74401,-0.09692 1.11466,-0.154512 0.20327,-0.03158 0.4065,-0.06498 0.60927,-0.100253 -0.19562,0.213419 -0.37008,0.432921 -0.52297,0.653191 -0.20846,0.300319 -0.37705,0.60299 -0.50229,0.895035 -0.21818,0.508781 -0.3322,1.043577 -0.35709,1.511536 -0.009,0.177286 -0.006,0.344886 0.009,0.497644 0.0228,0.230727 0.0669,0.451882 0.1323,0.663525 0.18124,0.58678 0.5249,1.099435 1.01699,1.532723 0.15631,0.137635 0.34192,0.259477 0.54932,0.363803 0.28291,0.142266 0.60477,0.251108 0.94413,0.321944 0.39367,0.08209 0.8075,0.112207 1.20768,0.08733 0.20971,-0.01304 0.41513,-0.04123 0.61029,-0.08475 0.29735,-0.06631 0.57172,-0.162998 0.81649,-0.288355 0.24711,-0.12327 0.45913,-0.263666 0.62994,-0.418579 0.004,-0.0039 0.009,-0.0079 0.0129,-0.01189 10e-4,-0.0011 0.003,-0.002 0.004,-0.0031 0.001,-0.0013 0.003,-0.0028 0.004,-0.0041 0.16107,-0.169805 0.29073,-0.344203 0.36226,-0.52555 0.0731,-0.185287 0.0811,-0.368856 0.0315,-0.544669 -0.085,-0.301285 -0.30095,-0.523879 -0.63769,-0.648539 -0.0817,-0.03195 -0.16709,-0.05729 -0.25528,-0.07596 -0.27088,-0.05733 -0.56876,-0.05206 -0.87126,0.02067 -0.18703,0.04496 -0.36887,0.112906 -0.54106,0.199471 -0.001,3.64e-4 -0.002,6.62e-4 -0.003,0.001 -0.001,7.87e-4 -0.003,0.0013 -0.004,0.0021 -0.15958,0.08407 -0.30326,0.183582 -0.42685,0.295073 l -5.2e-4,5.17e-4 c -2.6e-4,2.35e-4 6e-4,5.29e-4 -5.2e-4,0.001 -0.0494,0.04429 -0.0945,0.09024 -0.13487,0.137976 -0.0531,0.0627 -0.0987,0.127965 -0.13643,0.195337 -0.0694,0.123964 -0.0851,0.229061 -0.0687,0.38654 0.019,0.18205 0.14574,0.42167 0.42943,0.499711 0.0171,0.0047 0.0344,0.0089 0.0527,0.0124 -0.0166,0.0015 -0.0332,0.003 -0.0496,0.0041 -0.48954,0.03221 -0.9042,-0.126767 -1.23352,-0.375687 -0.414,-0.313059 -0.69233,-0.766952 -0.84026,-1.169955 -0.26928,-0.733571 -0.1232,-1.55254 0.22479,-2.29495 0.20481,-0.436994 0.48265,-0.855035 0.79944,-1.221114 0.46853,-0.541455 1.03147,-0.981592 1.61127,-1.218014 0.0913,-0.03722 0.18296,-0.06964 0.27543,-0.09664 0.27989,-0.07637 0.5588,-0.156304 0.83664,-0.239778 l 1.1343,3.774446 c 0.2614,0.08361 0.52465,0.164782 0.79014,0.24288 0.39949,0.117523 0.80341,0.228595 1.21181,0.333313 0.024,-0.07945 0.0478,-0.158773 0.0713,-0.238229 0.14648,-0.494738 0.36141,-0.978642 0.64079,-1.457792 0.12816,-0.219797 0.26984,-0.438855 0.42478,-0.657324 0.36077,-0.50911 0.77494,-0.972788 1.22421,-1.412834 0.0855,-0.08379 0.17247,-0.166872 0.26045,-0.24908 0.0757,0.532189 0.17283,1.057495 0.38396,1.514636 0.13687,0.296352 0.35627,0.651005 0.65991,1.059884 3.7e-4,3.47e-4 7.8e-4,7.27e-4 0.001,10e-4 l 5.2e-4,0.0016 c 0.3151,0.403303 0.71258,0.850382 1.19527,1.331702 0.0181,0.01823 0.0362,0.03657 0.0543,0.05478 0.45948,-0.0743 0.92014,-0.156851 1.3808,-0.248047 -0.0765,-0.07364 -0.15285,-0.147757 -0.22893,-0.221692 -0.662,-0.643948 -1.0984,-1.206316 -1.32033,-1.643827 -0.22449,-0.442538 -0.34882,-0.958011 -0.38706,-1.547192 -0.0193,-0.297287 -0.0201,-0.611941 -0.004,-0.944646 0.0157,-0.328454 0.0476,-0.673627 0.0935,-1.036629 0.006,-0.04666 0.0119,-0.09341 0.0176,-0.140043 -0.24657,0.0043 -0.49268,0.0059 -0.73742,0.0047 -0.44396,-0.0021 -0.88449,-0.01322 -1.32188,-0.03307 -0.0283,0.02577 -0.0569,0.0513 -0.0853,0.077 -0.19459,0.174472 -0.39982,0.369732 -0.62063,0.587044 -0.0644,0.06334 -0.12999,0.128917 -0.19689,0.195854 -0.3015,0.290895 -0.60639,0.605337 -0.92036,0.947746 -0.18578,0.196254 -0.36903,0.398017 -0.55087,0.605131 -0.12946,0.147439 -0.2582,0.297439 -0.38602,0.450618 -0.20169,0.240432 -0.37181,0.488667 -0.55552,0.736389 l -0.8754,-2.525944 c 0.39041,-0.135467 0.77005,-0.275251 1.13791,-0.417545 0.68236,-0.263954 1.33633,-0.541931 1.96164,-0.829407 0.62253,-0.286195 1.22996,-0.587903 1.82108,-0.903304 0.5459,-0.291277 1.08823,-0.599718 1.62574,-0.925525 0.10209,-0.06188 0.20431,-0.124199 0.30644,-0.187585 0.38518,-0.239134 0.84358,-0.267371 1.41283,-0.122473 -0.0958,0.126591 -0.19983,0.249448 -0.27698,0.386539 -0.12038,0.213834 -0.21451,0.429641 -0.28061,0.646472 -5e-4,0.0011 -10e-4,0.0025 -10e-4,0.0036 -3.7e-4,0.0013 -7.7e-4,0.0023 -0.001,0.0036 -0.0562,0.211577 -0.082,0.419222 -0.0755,0.620634 3.5e-4,8.95e-4 7.3e-4,0.0017 0.001,0.0026 -8e-5,8.85e-4 9e-5,0.0017 0,0.0026 0.013,0.192229 0.0663,0.367495 0.1602,0.521415 0.1473,0.241458 0.3961,0.399764 0.73329,0.457336 0.001,3.21e-4 0.003,7.14e-4 0.004,0.001 0.002,4.3e-5 0.003,-4.2e-5 0.005,0 0.35269,0.04374 0.74117,-0.05698 1.09503,-0.292489 0.10601,-0.07055 0.20224,-0.145743 0.28887,-0.224275 0.4251,-0.385358 0.6189,-0.854245 0.63975,-1.333252 0.19445,0.07543 0.3886,0.119452 0.58653,0.11007 0.0275,-0.0013 0.0551,-0.0038 0.0827,-0.0072 0.26171,-0.03227 0.69948,-0.200355 1.0263,-0.475424 0.16635,-0.139983 0.29737,-0.284318 0.39739,-0.42633 0.1546,-0.219515 0.23513,-0.433355 0.25941,-0.621151 0.044,-0.340231 -0.0238,-0.67558 -0.26355,-0.890901 -0.23004,-0.206579 -0.44331,-0.207289 -0.76274,-0.221176 -0.1785,-0.0078 -0.38962,0.0085 -0.62529,0.04444 -0.1822,0.02781 -0.37957,0.06767 -0.58756,0.116789 -0.057,-0.18133 0.0289,-0.402351 0.18862,-0.60048 0.0582,-0.07218 0.12643,-0.141571 0.20154,-0.205156 0.2116,-0.17922 0.5855,-0.285922 1.15239,-0.270267 0.0281,0.0014 0.0561,0.0029 0.0832,0.0046 0.53527,0.03399 0.872,0.140619 1.02061,0.301791 0.98514,1.103768 1.9679,2.209388 2.94866,3.31711 0.62507,-0.12393 1.2525,-0.264816 1.88154,-0.42323 l -5.21208,-5.236373 c 0.0213,-0.02118 0.0423,-0.04232 0.0636,-0.06356 0.11256,-0.112653 0.22439,-0.22581 0.33538,-0.340031 V 79.2174 c 0.18546,-0.190858 0.36838,-0.383634 0.54932,-0.578776 0.10925,-0.117828 0.2175,-0.236733 0.32504,-0.35605 z m -49.488966,5.267378 c 0.298618,0.08181 0.595528,0.169508 0.890385,0.261483 0.70036,0.218468 1.397634,0.46342 2.078942,0.709001 0.122953,0.04432 0.245618,0.08892 0.367937,0.133325 l -1.764234,2.48822 c -0.03735,-0.170953 -0.08093,-0.342314 -0.130741,-0.514697 -0.215664,-0.746314 -0.546025,-1.505257 -0.979785,-2.290816 -0.143,-0.258977 -0.297445,-0.52111 -0.462504,-0.786516 z m 11.882995,4.043165 c 0.05672,3.91e-4 0.112522,0.0037 0.168465,0.01033 0.125851,0.01482 0.250181,0.04511 0.375688,0.09043 0.169557,0.06123 0.245168,0.121202 0.289388,0.199471 0.04399,0.07789 0.05734,0.197582 5.17e-4,0.361735 -0.09876,0.285331 -0.322492,0.473761 -0.712618,0.575158 -4.74e-4,3.3e-4 -0.0011,7.04e-4 -0.0016,0.001 -5.51e-4,5.2e-5 -9.51e-4,4.65e-4 -0.0016,5.17e-4 -0.146592,0.04042 -0.290766,0.06193 -0.433565,0.06563 -0.242253,0.0063 -0.481885,-0.03979 -0.726571,-0.136943 -0.139394,-0.05535 -0.191373,-0.102539 -0.223759,-0.170015 -0.03255,-0.06779 -0.03807,-0.177688 0.02222,-0.325045 0.05446,-0.133087 0.139944,-0.24753 0.256315,-0.348299 0.130663,-0.104696 0.281382,-0.184436 0.454753,-0.241329 4.64e-4,-1.29e-4 10e-4,-4.87e-4 0.0015,-0.001 0.185627,-0.05622 0.36055,-0.08282 0.530717,-0.08165 z m -2.856156,1.32705 -0.127124,0.28267 -0.665076,1.48053 c 0.02952,0.02943 0.05923,0.05902 0.08888,0.08837 0.07928,0.07843 0.159939,0.159616 0.242879,0.243396 0.220463,0.222692 0.452609,0.462168 0.701766,0.72192 7.97e-4,5.8e-4 0.0013,0.001 0.0021,0.0015 4.99e-4,3.36e-4 0.001,7.05e-4 0.0015,10e-4 0.291138,0.29449 0.588634,0.597419 0.894002,0.910022 0.0035,0.0036 0.168565,0.173132 0.172083,0.176734 1.89e-4,5.72e-4 8.45e-4,0.0015 0.001,0.0021 6.56e-4,4.92e-4 8.51e-4,5.17e-4 0.0016,10e-4 0.367418,0.366098 0.73269,0.739308 1.098641,1.121896 0.09808,0.102536 0.194894,0.204056 0.289904,0.304374 0.259932,0.274444 0.507409,0.540123 0.743624,0.799434 0.112429,0.12327 0.225984,0.246109 0.340548,0.368453 l 0.261483,-0.928625 c -0.01098,-0.0169 -0.02161,-0.03373 -0.03256,-0.05064 -0.270367,-0.412614 -0.585306,-0.860681 -0.941545,-1.357023 -0.279941,-0.390045 -0.583774,-0.807481 -0.906405,-1.25367 l -5.16e-4,-5.17e-4 C 92.419285,91.603496 92.262388,91.383727 92.108589,91.169628 91.591753,90.45015 91.13778,89.830822 90.708158,89.28964 c -0.01336,-0.01683 -0.02649,-0.03399 -0.03979,-0.05064 -0.08468,-0.106098 -0.168582,-0.212178 -0.251664,-0.318844 z" /><path
           id="rect912"
           style="color:#000000;fill:#036f0e;fill-opacity:1;fill-rule:evenodd"
           d="m 98.676708,33.208826 c -0.180821,0 -0.327112,0.146291 -0.327112,0.327112 v 0.367419 c 0,0.205433 -0.09329,0.399312 -0.253731,0.527617 l -1.288294,1.030428 c -0.164321,0.13141 -0.368372,0.203088 -0.578776,0.203088 h -3.549137 c -0.252721,0 -0.457337,0.204617 -0.457337,0.457337 v 1.320332 c 0,0.25272 0.204616,0.457854 0.457337,0.457854 h 3.549137 c 0.210225,0 0.413771,-0.07283 0.576709,-0.205673 l 1.189592,-0.969449 c 0.229392,-0.187013 0.515872,-0.288872 0.811836,-0.288872 h 3.656618 c 0.25273,0 0.45786,0.204617 0.45786,0.457337 v 0.476456 c 0,0.25272 0.20461,0.457854 0.45733,0.457854 h 4.89634 c 0.25272,0 0.45786,-0.205134 0.45786,-0.457854 v -0.476456 c 0,-0.25272 0.20461,-0.457337 0.45733,-0.457337 h 4.3863 c 0.25272,0 0.45785,0.204617 0.45785,0.457337 v 0.472322 c 0,0.25272 0.20462,0.457853 0.45734,0.457853 h 6.53758 c 0.21005,0 0.38034,-0.170282 0.38034,-0.380338 v -1.405599 c 0,-0.219188 -0.17768,-0.396875 -0.39687,-0.396875 h -5.39089 c -0.21919,0 -0.39687,-0.177687 -0.39687,-0.396875 v -0.578776 c 0,-0.219188 -0.17769,-0.396875 -0.39688,-0.396875 h -1.88619 c -0.21919,0 -0.39687,-0.177687 -0.39687,-0.396875 v -0.265617 c 0,-0.219188 -0.17769,-0.396875 -0.39688,-0.396875 z m 23.671422,5.404321 a 0.20995808,0.20995808 0 0 0 -0.18862,0.117823 l -1.75132,3.574458 a 0.92741843,0.92741843 0 0 0 -0.0946,0.408244 v 9.526551 h -2.25878 a 0.32049085,0.32049085 0 0 1 -0.32039,-0.320394 v -6.450253 a 0.41144137,0.41144137 0 0 0 -0.41135,-0.411344 h -11.99565 a 0.41144137,0.41144137 0 0 0 -0.41134,0.411344 v 6.417696 a 0.11548409,0.11548409 0 0 1 -0.19379,0.08475 l -8.364344,-7.756116 a 0.18644005,0.18644005 0 0 0 -0.313159,0.136943 v 6.769612 a 0.07939382,0.07939382 0 0 1 -0.133325,0.05839 l -7.510653,-6.96495 a 0.18643656,0.18643656 0 0 0 -0.313159,0.136943 v 6.767545 a 0.07939492,0.07939492 0 0 1 -0.133325,0.05839 l -7.508586,-6.962883 a 0.18643914,0.18643914 0 0 0 -0.131258,-0.04961 0.18643914,0.18643914 0 0 0 -0.181901,0.186552 v 20.9951 a 0.41144137,0.41144137 0 0 0 0.411345,0.411345 h 49.872925 a 0.41144137,0.41144137 0 0 0 0.41134,-0.411345 v -5.477701 a 0.41144137,0.41144137 0 0 0 -0.41134,-0.411345 h -10.0459 a 0.32049085,0.32049085 0 0 1 -0.3204,-0.320394 v -1.619022 a 0.32049085,0.32049085 0 0 1 0.3204,-0.320394 h 10.0459 a 0.41144137,0.41144137 0 0 0 0.41134,-0.411344 v -4.140316 a 0.40725026,0.40725026 0 0 0 -0.40721,-0.40721 h -6.03839 v -9.526551 a 0.92741843,0.92741843 0 0 0 -0.0946,-0.408244 l -1.75131,-3.574458 a 0.20995808,0.20995808 0 0 0 -0.18862,-0.117823 z m -15.53859,7.927682 h 9.03304 a 0.41144137,0.41144137 0 0 1 0.41135,0.411344 v 6.358785 a 0.41144137,0.41144137 0 0 0 0.41134,0.411345 h 12.35997 a 0.32049085,0.32049085 0 0 1 0.32039,0.320393 v 1.353406 a 0.32049085,0.32049085 0 0 1 -0.32039,0.320394 h -10.04538 a 0.41144137,0.41144137 0 0 0 -0.41135,0.411344 v 4.401799 a 0.41144137,0.41144137 0 0 0 0.41135,0.411344 h 10.04538 a 0.32049085,0.32049085 0 0 1 0.32039,0.320394 v 2.69751 a 0.32049085,0.32049085 0 0 1 -0.32039,0.320394 H 82.026561 a 0.41144137,0.41144137 0 0 1 -0.411344,-0.411345 v -9.734289 a 0.41144137,0.41144137 0 0 1 0.411344,-0.411344 h 23.960289 a 0.41144137,0.41144137 0 0 0 0.41135,-0.411345 v -6.358785 a 0.41144137,0.41144137 0 0 1 0.41134,-0.411344 z m -25.014489,1.020093 a 0.1864349,0.1864349 0 0 1 0.131258,0.04961 l 4.786788,4.439005 a 0.11009472,0.11009472 0 0 1 -0.07493,0.190687 H 81.893753 A 0.280633,0.280633 0 0 1 81.61315,51.959619 v -4.212145 a 0.1864349,0.1864349 0 0 1 0.181901,-0.186552 z m 7.957137,0 a 0.1864349,0.1864349 0 0 1 0.131258,0.04961 l 4.786788,4.439005 a 0.11009472,0.11009472 0 0 1 -0.07493,0.190687 H 89.85089 a 0.280633,0.280633 0 0 1 -0.280603,-0.280605 v -4.212145 a 0.1864349,0.1864349 0 0 1 0.181901,-0.186552 z m 7.957137,0.0021 a 0.18643882,0.18643882 0 0 1 0.131258,0.04961 l 4.784717,4.436938 a 0.11009222,0.11009222 0 0 1 -0.0749,0.190687 h -4.742343 a 0.280633,0.280633 0 0 1 -0.280603,-0.280604 v -4.210078 a 0.18643882,0.18643882 0 0 1 0.181901,-0.186552 z m 10.560595,1.022676 a 0.45602863,0.45602863 0 0 0 -0.45579,0.455786 v 1.70739 a 0.45602863,0.45602863 0 0 0 0.45579,0.455786 h 6.11228 a 0.45602863,0.45602863 0 0 0 0.45579,-0.455786 v -1.70739 a 0.45602863,0.45602863 0 0 0 -0.45579,-0.455786 z m -22.029662,8.444446 c -0.553968,0 -1.009758,0.455274 -1.009758,1.009241 v 1.920813 c 0,0.553965 0.45579,1.009758 1.009758,1.009757 h 2.939355 c 0.553969,0 1.00769,-0.455792 1.00769,-1.009757 v -1.920813 c 0,-0.553967 -0.453721,-1.009241 -1.00769,-1.009241 z m 7.325651,0 c -0.55397,0 -1.009758,0.455274 -1.009758,1.009241 v 1.920813 c 0,0.553965 0.455788,1.009758 1.009758,1.009757 h 2.939355 c 0.55397,0 1.00769,-0.455792 1.00769,-1.009757 v -1.920813 c 0,-0.553967 -0.453721,-1.009241 -1.00769,-1.009241 z m 7.325651,0 c -0.55397,0 -1.009758,0.455274 -1.009758,1.009241 v 1.920813 c 0,0.553965 0.455788,1.009758 1.009758,1.009757 h 2.93935 c 0.55397,0 1.00769,-0.455792 1.00769,-1.009757 v -1.920813 c 0,-0.553967 -0.45372,-1.009241 -1.00769,-1.009241 z m -14.651302,0.529167 h 2.939355 c 0.267986,0 0.478524,0.212089 0.478524,0.480074 v 1.920813 c 0,0.267983 -0.210538,0.480074 -0.478524,0.480074 h -2.939355 c -0.267985,0 -0.480591,-0.212091 -0.480591,-0.480074 v -1.920813 c 0,-0.267985 0.212606,-0.480074 0.480591,-0.480074 z m 7.325651,0 h 2.939355 c 0.26799,0 0.478524,0.212089 0.478524,0.480074 v 1.920813 c 0,0.267983 -0.210534,0.480074 -0.478524,0.480074 h -2.939355 c -0.26798,0 -0.480591,-0.212091 -0.480591,-0.480074 v -1.920813 c 0,-0.267985 0.212611,-0.480074 0.480591,-0.480074 z m 7.325651,0 h 2.93935 c 0.26799,0 0.47852,0.212089 0.47852,0.480074 v 1.920813 c 0,0.267983 -0.21053,0.480074 -0.47852,0.480074 h -2.93935 c -0.26798,0 -0.4806,-0.212091 -0.4806,-0.480074 v -1.920813 c 0,-0.267985 0.21262,-0.480074 0.4806,-0.480074 z" /><path
           id="path4507"
           style="color:#000000;-inkscape-font-specification:Kalpurush;fill:#036f0e;fill-opacity:1;stroke-width:0.144385"
           d="m 93.241411,66.982301 c -0.407734,0 -0.842962,0.136609 -1.249231,0.46646 -0.35862,0.291169 -0.695265,0.711834 -0.670454,1.089457 0.01959,0.298388 0.188733,0.396369 0.404149,0.591454 h -1.138507 c -0.118091,-0.125734 -0.211664,-0.330278 -0.264657,-0.634826 l -0.0047,-0.02681 -0.311171,-0.25196 c -0.0137,0.528018 0.05161,0.992876 0.06882,1.50981 -0.17391,-0.424006 -0.55829,-0.596185 -0.964813,-0.596185 h -0.04978 -0.489814 -4.861498 l 0.607944,0.593031 h 1.731637 c -0.01967,0.183915 -0.06221,0.366606 -0.15724,0.544137 -0.137438,0.241935 -0.281431,0.344666 -0.435476,0.351717 -0.03879,-0.0094 -0.08968,-0.03124 -0.152707,-0.07768 l 0.0016,0.0031 c -0.07049,-0.05713 -0.140249,-0.123185 -0.211562,-0.196758 l -0.07002,-0.07137 -0.245731,0.434915 0.02015,0.03431 c 0.12729,0.22171 0.267268,0.386149 0.426427,0.491696 h 0.0016 c 0.160775,0.102679 0.323751,0.158114 0.486932,0.158114 0.246486,0 0.473994,-0.179731 0.693559,-0.500764 h 0.0016 v -0.0016 c 0.08016,-0.126161 0.149513,-0.255191 0.207045,-0.387204 l 0.0016,-0.0016 c 0.04436,-0.09293 0.07129,-0.177825 0.09838,-0.263394 0.02031,0.10388 0.06029,0.204297 0.119365,0.301247 0.114059,0.20201 0.30038,0.388674 0.564725,0.556755 -0.35483,0.03252 -0.675767,0.0974 -0.922414,0.238159 -0.346777,0.186574 -0.533854,0.465669 -0.533854,0.81108 v 0.0043 l 0.0016,0.0043 c 0.01888,0.162686 0.10131,0.30035 0.239551,0.396668 0.135972,0.09473 0.291683,0.136987 0.454418,0.124994 0.26847,-0.01747 0.506762,-0.12011 0.703023,-0.30243 0.179955,-0.172385 0.257495,-0.385678 0.27372,-0.613929 0.04278,-0.02209 0.08391,-0.04246 0.125952,-0.05521 0.04731,-0.01436 0.105369,-0.0209 0.172876,-0.0209 0.123123,0 0.200401,0.03194 0.253551,0.09227 0.05313,0.06034 0.08561,0.159397 0.08561,0.305585 0,0.316651 -0.147952,0.553588 -0.462239,0.73774 -0.262299,0.148713 -0.579151,0.225146 -0.956577,0.225146 -0.562869,0 -1.008191,-0.112842 -1.34102,-0.333974 l -0.209919,-0.139977 0.594363,1.336685 0.03251,0.01064 c 0.816581,0.241108 1.545923,0.527161 2.187279,0.858397 0.646711,0.336464 1.188967,0.714312 1.627088,1.134013 l 0.16324,0.157721 -0.110316,-0.621421 -0.01728,-0.01617 c -0.266121,-0.244087 -0.588279,-0.511527 -0.966047,-0.803194 -0.346275,-0.271401 -0.72503,-0.542787 -1.124512,-0.81384 0.401918,-0.189888 0.740012,-0.386742 0.956576,-0.600523 0.23846,-0.235394 0.363862,-0.491695 0.363862,-0.760215 0,-0.55075 -0.259503,-0.951478 -0.718668,-1.205384 0.196046,-0.06471 0.37882,-0.152377 0.494753,-0.320567 0.144359,-0.201711 0.207452,-0.440116 0.189752,-0.706195 v -0.0016 -0.0016 c -0.01178,-0.107418 -0.03593,-0.210152 -0.07161,-0.307162 h 0.0016 c -0.0227,-0.06525 -0.06181,-0.126619 -0.09631,-0.189264 h 0.253552 c 0.553072,0 0.970771,0.326944 0.970771,0.851364 v 3.378384 l 0.60342,0.598945 v -4.828628 h 1.141797 v 4.23126 l 0.628526,0.591454 v -4.822714 h 0.93147 l -0.629968,-0.592754 h -0.496402 l -0.15394,-0.360392 c 0.02365,-0.286802 0.214205,-0.552964 0.609593,-0.802011 0.361886,-0.231116 0.710255,-0.345177 1.047132,-0.342648 0.979045,0.0073 1.830674,0.522443 2.523812,1.141501 l -0.04859,-0.39509 -0.01107,-0.0103 c -0.919771,-0.913734 -1.896419,-1.378481 -2.919949,-1.378481 z m 3.688423,1.212874 c 0.03281,0.82022 0.08119,1.600529 0.115413,2.359112 -0.568986,-0.857624 -1.185828,-1.344177 -1.863762,-1.344177 -0.189083,0 -0.390639,0.02955 -0.597238,0.10134 -0.449574,0.156204 -0.864277,0.395933 -1.157449,0.760254 -0.124861,0.155163 -0.194595,0.336417 -0.191393,0.526024 0.0016,0.109472 0.04611,0.21233 0.129241,0.298092 l 0.0016,0.0016 h 0.0016 c 0.08922,0.08547 0.196984,0.134063 0.312821,0.134063 0.100939,0 0.219694,-0.03245 0.362627,-0.09227 l 0.0047,-0.0016 c 0.07584,-0.02593 0.138354,-0.0472 0.18687,-0.0627 0.04421,-0.01412 0.08547,-0.0209 0.121419,-0.0209 0.07463,0 0.113694,0.02177 0.150652,0.08202 0.03696,0.06024 0.06213,0.166638 0.06213,0.315837 0,0.129562 -0.145999,0.360004 -0.466762,0.651387 l -0.08686,0.07887 0.830624,0.287841 1.64438,-1.581154 c 0.257734,0.213421 0.486356,0.593641 0.480661,0.797243 l -0.06834,2.443886 0.653226,0.605254 v -4.812462 h 6.382796 l -0.65157,-0.59303 h -5.661253 c -0.123261,0 -0.223716,-0.04471 -0.259726,-0.165213 -0.05703,-0.190894 -0.05576,-0.315142 -0.07479,-0.478686 z m 17.258706,0.67544 c -0.15561,-0.0029 -0.29451,0.06453 -0.39513,0.189266 -0.10601,0.131459 -0.16029,0.296553 -0.16628,0.48578 -0.006,0.231149 0.0712,0.450695 0.22554,0.649811 v 0.0012 h 10e-4 c 0.15709,0.189489 0.37088,0.368995 0.638,0.538224 0.21329,0.149094 0.45446,0.275874 0.72361,0.380107 h 10e-4 v 0.0012 c 0.26657,0.09576 0.52303,0.207951 0.76724,0.335551 h 0.001 c 0.24686,0.120878 0.45592,0.26405 0.62975,0.430578 l 10e-4,0.0016 c 0.16611,0.154166 0.26694,0.359905 0.305,0.625759 -7.9e-4,0.100176 -0.0233,0.187837 -0.067,0.266942 -0.0469,0.08469 -0.1059,0.158864 -0.17863,0.223569 -0.0748,0.06655 -0.15955,0.129149 -0.25684,0.186111 -0.0459,0.0269 -0.0944,0.05189 -0.1416,0.07768 0.0122,-0.03852 0.0332,-0.07532 0.0403,-0.114742 0.0238,-0.102546 0.0326,-0.205892 0.0268,-0.308739 -0.005,-0.17607 -0.048,-0.346954 -0.12472,-0.511016 -0.0706,-0.162577 -0.16721,-0.306526 -0.2906,-0.430578 -0.12428,-0.130404 -0.26978,-0.233275 -0.43589,-0.307163 -0.16307,-0.07521 -0.34397,-0.109773 -0.53962,-0.104094 -0.21798,0.0057 -0.41955,0.05478 -0.60383,0.145891 v -0.0016 c -0.17705,0.08481 -0.32784,0.199479 -0.45236,0.341466 -0.11845,0.136173 -0.21093,0.295538 -0.27536,0.475135 -0.0642,0.178982 -0.0945,0.3617 -0.0889,0.546897 v 0.0016 c 2e-5,4.94e-4 -1e-5,0.001 0,0.0016 2.4e-4,0.112858 0.0165,0.232349 0.0452,0.359209 0.0294,0.129212 0.0731,0.250416 0.13213,0.363548 v 0.0016 l 0.001,0.0016 c 0.0677,0.117713 0.16182,0.224409 0.29101,0.305584 0.14057,0.08833 0.31676,0.132821 0.46383,0.134088 0.18061,0.0015 0.33582,-0.03478 0.45276,-0.128148 0.12283,-0.09907 0.20729,-0.244114 0.2194,-0.424664 0.0126,-0.187512 -0.0779,-0.336972 -0.17912,-0.436899 -0.0981,-0.09683 -0.23473,-0.127813 -0.36386,-0.128148 h -0.001 c -0.0915,0 -0.16219,0.01103 -0.23008,0.03155 -0.15969,-0.244402 -0.0315,-0.763203 0.30048,-0.912441 0.0546,-0.0245 0.13404,-0.0474 0.2334,-0.04298 0.52868,0.02351 0.74594,0.446426 0.73592,0.882461 -0.009,0.416727 -0.14284,0.870979 -0.27074,1.210153 l 0.0839,-0.0016 c 0.23203,-0.0056 0.47789,-0.04491 0.73596,-0.116319 h 0.001 c 0.25889,-0.07716 0.49578,-0.181387 0.70961,-0.314259 0.21489,-0.133519 0.39316,-0.299382 0.53344,-0.49485 0.14947,-0.200453 0.22204,-0.432749 0.21609,-0.688452 0.005,-0.380558 -0.0729,-0.70797 -0.2379,-0.979053 -0.1543,-0.26781 -0.32649,-0.482341 -0.51945,-0.639558 -0.10992,-0.09421 -0.2267,-0.174387 -0.34863,-0.241314 l -0.001,-0.0016 c -0.11931,-0.07066 -0.24716,-0.135484 -0.38279,-0.195181 -0.13084,-0.06539 -0.26728,-0.12238 -0.40914,-0.171521 l -0.004,-0.0016 c -0.13213,-0.05283 -0.26231,-0.10876 -0.38898,-0.166789 l -0.001,-0.0016 h -0.003 c -0.26717,-0.10131 -0.47355,-0.196914 -0.61906,-0.284686 -0.0727,-0.04383 -0.12455,-0.08442 -0.15396,-0.114743 -0.0283,-0.02919 -0.0293,-0.04394 -0.0297,-0.04456 0.10473,-0.103184 0.18533,-0.210154 0.1914,-0.326483 v -0.0016 c 0.006,-0.138327 -0.037,-0.265432 -0.12594,-0.369461 -0.0914,-0.111917 -0.22581,-0.175784 -0.38733,-0.187688 -0.0109,-8.4e-4 -0.0231,-0.0013 -0.0329,-0.0016 z m 9.61105,0 c -0.15562,-0.0029 -0.29451,0.06453 -0.39513,0.189266 -0.10602,0.131457 -0.16195,0.296551 -0.16793,0.48578 -0.006,0.231149 0.0711,0.450694 0.22555,0.649811 l 0.001,0.0012 c 0.15707,0.18949 0.37045,0.368995 0.63757,0.538224 0.21332,0.14912 0.4557,0.275883 0.72484,0.380107 l 0.001,0.0012 c 0.26654,0.09575 0.52137,0.207935 0.76559,0.335551 h 0.001 c 0.24688,0.120878 0.45758,0.26405 0.63141,0.430578 v 0.0016 c 0.16611,0.154166 0.26694,0.359905 0.305,0.625759 -7.9e-4,0.100176 -0.0218,0.187841 -0.0655,0.266942 -0.0469,0.08469 -0.1059,0.158863 -0.17864,0.223569 -0.0749,0.06655 -0.16118,0.12915 -0.25849,0.186111 -0.0459,0.0269 -0.0944,0.05189 -0.14159,0.07768 0.0123,-0.03851 0.0337,-0.07533 0.0408,-0.114742 0.0238,-0.102546 0.0338,-0.205885 0.0279,-0.308739 -0.005,-0.175586 -0.0484,-0.34579 -0.12471,-0.509439 v -0.0016 c -0.0705,-0.162548 -0.16725,-0.306407 -0.2906,-0.430578 -0.12406,-0.130163 -0.27028,-0.233331 -0.43588,-0.307163 h -10e-4 c -0.16271,-0.07478 -0.34284,-0.109757 -0.53796,-0.104095 -0.21799,0.0057 -0.4208,0.05478 -0.60507,0.145892 v -0.0016 c -0.17706,0.08481 -0.32827,0.199475 -0.45276,0.341466 -0.11846,0.136174 -0.21092,0.295543 -0.27538,0.475135 -0.0642,0.178979 -0.0928,0.3617 -0.0873,0.546897 v 0.0016 c 1e-5,4.93e-4 -3e-5,10e-4 0,0.0016 2.3e-4,0.112857 0.0149,0.232353 0.0437,0.35921 0.0294,0.129214 0.0731,0.250418 0.13211,0.363547 v 0.0016 l 0.001,0.0016 c 0.0676,0.117715 0.16529,0.219559 0.29102,0.305584 l 10e-4,0.0016 c 0.13569,0.08862 0.29298,0.132486 0.46347,0.132486 0.17981,0.0052 0.33453,-0.03508 0.45112,-0.128148 0.12285,-0.09909 0.19524,-0.245232 0.21939,-0.424664 l 10e-4,-0.0047 v -0.0043 c 0,-0.185451 -0.058,-0.336401 -0.18069,-0.427819 -0.11113,-0.08281 -0.23473,-0.127811 -0.36386,-0.128147 h -10e-4 c -0.0901,-0.0042 -0.16111,0.01141 -0.22843,0.03155 -0.21773,-0.259965 0.0225,-0.826262 0.29841,-0.912468 0.057,-0.01779 0.13481,-0.0422 0.23337,-0.04298 0.58063,-0.0045 0.74648,0.530167 0.73576,0.88213 -0.0127,0.417107 -0.16246,0.824482 -0.27043,1.210546 l 0.0839,-0.0016 c 0.23202,-0.0056 0.4779,-0.04491 0.73596,-0.116318 h 0.001 c 0.25889,-0.07716 0.49578,-0.181782 0.7096,-0.314654 0.21489,-0.133519 0.39318,-0.298986 0.53345,-0.494455 0.14947,-0.200454 0.22246,-0.433145 0.21652,-0.688847 0.005,-0.380556 -0.0733,-0.70797 -0.23833,-0.979052 -0.15429,-0.267809 -0.32649,-0.481947 -0.51945,-0.639164 -0.1096,-0.09393 -0.22543,-0.174503 -0.34699,-0.241313 l -0.003,-0.0016 c -0.11862,-0.07018 -0.24642,-0.135824 -0.38116,-0.195181 l -0.004,-0.0016 c -0.12995,-0.0647 -0.26548,-0.121237 -0.40627,-0.169944 l -0.003,-0.0016 c -0.13258,-0.05298 -0.26189,-0.108569 -0.38898,-0.166789 l -0.003,-0.0016 h -0.001 c -0.26717,-0.10131 -0.47519,-0.196915 -0.62071,-0.284686 -0.0727,-0.04382 -0.12454,-0.08442 -0.15393,-0.114743 -0.0276,-0.0285 -0.0294,-0.04202 -0.0297,-0.04337 0.10569,-0.103669 0.18694,-0.210702 0.19305,-0.327665 v -0.0016 c 0.006,-0.138334 -0.0386,-0.265434 -0.1276,-0.369461 -0.0914,-0.111916 -0.22582,-0.176179 -0.38732,-0.188083 -0.011,-8.4e-4 -0.0214,-9.16e-4 -0.0313,-0.0012 z m -13.2764,0.154961 c -0.18667,0 -0.3511,0.06809 -0.47582,0.199517 -0.1236,0.130244 -0.1881,0.290784 -0.1881,0.468037 0,0.128305 0.0669,0.276848 0.1881,0.464883 v 0.0016 c 0.12154,0.182964 0.26586,0.345855 0.43383,0.490118 l 0.001,0.0016 c 0.17915,0.150164 0.36359,0.309745 0.55402,0.481443 v 0.0016 h 0.001 c 0.19083,0.166688 0.37181,0.328291 0.54578,0.484203 0.38486,0.374792 0.56802,0.689984 0.56802,0.925427 0,0.108841 -0.0231,0.214196 -0.07,0.318992 v 0.0016 l -10e-4,0.0016 c -0.0367,0.09229 -0.10804,0.185906 -0.19921,0.278772 -0.22547,-0.204631 -0.52745,-0.332397 -0.94587,-0.332397 -0.27043,0 -0.52703,0.09374 -0.7623,0.274041 -0.22762,0.172131 -0.34863,0.398253 -0.34863,0.660456 0,0.213346 0.12345,0.401127 0.34409,0.549658 0.1806,0.131701 0.39372,0.199911 0.63141,0.199911 0.50246,0 0.96995,-0.190263 1.39082,-0.560304 0.41641,-0.371191 0.63182,-0.809738 0.63182,-1.302775 v -0.07137 c 0,-0.798792 -0.58532,-1.454719 -1.1002,-1.96444 l -0.001,-0.0012 c -0.18518,-0.192977 -0.40963,-0.413431 -0.66722,-0.655725 0.003,-0.03611 0.006,-0.07233 0.006,-0.102916 V 69.71725 c 0,-0.215669 -0.0386,-0.384907 -0.12926,-0.506679 -0.0907,-0.121771 -0.23573,-0.184927 -0.40749,-0.184928 z m 8.96853,0.160876 c -0.14156,0 -0.27241,0.05248 -0.37951,0.149046 -0.10783,0.09721 -0.16628,0.22102 -0.16628,0.357632 0,0.129848 0.0502,0.250954 0.14446,0.353296 l 0.001,0.0011 c 0.0829,0.08436 0.19442,0.113158 0.30664,0.129726 0.043,0.353154 0.081,0.647094 0.1136,0.865888 0.034,0.227715 0.0634,0.378382 0.0963,0.46646 0.096,0.259232 0.23133,0.459152 0.40913,0.594607 0.17783,0.135456 0.39577,0.202672 0.64542,0.202672 0.28206,0 0.54618,-0.0674 0.7874,-0.202672 l 0.001,-0.0016 c 0.20306,-0.118612 0.33545,-0.300958 0.44783,-0.499187 0.0468,0.08298 0.0936,0.165907 0.1169,0.247622 v 0.0028 l 0.001,0.0016 c 0.037,0.106443 0.056,0.210735 0.056,0.315835 0,0.361373 -0.12153,0.646694 -0.36591,0.87062 l -0.001,0.0011 c -0.23282,0.223032 -0.53809,0.333974 -0.93353,0.333974 -0.64752,0 -1.19105,-0.332943 -1.6489,-1.025187 h -0.001 c -0.35362,-0.524021 -0.60583,-1.158342 -0.75611,-1.904875 l -0.006,-0.03548 -0.41038,-0.189265 0.008,0.122234 c 0.0739,0.886885 0.3311,1.72303 0.76847,2.506581 v 0.0016 c 0.54667,0.97644 1.24182,1.481395 2.0708,1.481395 0.56511,0 1.02593,-0.225635 1.3579,-0.666371 0.1513,-0.195121 0.26152,-0.409832 0.33134,-0.643896 0.0754,-0.238933 0.11237,-0.498593 0.11237,-0.779142 0,-0.740187 -0.31476,-1.34182 -0.93188,-1.783825 l -0.0856,-0.06269 -0.0297,0.09975 c -0.0375,0.128237 -0.0926,0.250892 -0.16794,0.369461 l -10e-4,0.0016 v 0.0016 c -0.0706,0.119514 -0.15537,0.238801 -0.25354,0.35921 -0.12644,0.142192 -0.24633,0.251472 -0.35769,0.327665 -0.10768,0.06808 -0.20801,0.100156 -0.30213,0.100156 -0.0941,0 -0.14946,-0.02771 -0.19428,-0.08951 -0.0444,-0.06125 -0.0746,-0.165967 -0.0779,-0.314653 v -0.0028 c 0.005,-0.181074 0.0113,-0.328038 0.0169,-0.439647 0.005,-0.118006 0.009,-0.211623 0.0155,-0.280348 0.005,-0.07082 0.009,-0.125503 0.009,-0.166791 v -0.09699 c 0,-0.344001 -0.0563,-0.60945 -0.1807,-0.795703 -0.12438,-0.186252 -0.32359,-0.284685 -0.5676,-0.284685 z m -32.470111,0.536251 h 1.121629 c 0.170118,0.09663 0.263302,0.229126 0.261367,0.430972 -0.0016,0.138272 -0.05536,0.231268 -0.143237,0.296517 -0.08876,0.06595 -0.228798,0.10755 -0.423131,0.108827 -0.232732,0.0015 -0.424101,-0.08766 -0.592714,-0.274434 -0.150834,-0.172 -0.207762,-0.361139 -0.223914,-0.561882 z m 8.318183,0.11356 c 0.229124,0 0.429224,0.1146 0.620705,0.29336 l -1.00021,0.958155 c -0.004,-0.184897 -0.01545,-0.367981 -0.115255,-0.505101 -0.09774,-0.140444 -0.282593,-0.179151 -0.469638,-0.211346 0.205699,-0.334854 0.497205,-0.535068 0.964398,-0.535068 z m 2.951228,0 0.03871,0.134062 c 0.355547,1.235324 0.781034,2.166144 1.283396,2.792844 0.502364,0.626702 1.088424,0.949087 1.745634,0.949087 0.48335,0 0.92273,-0.16028 1.30521,-0.476712 l 10e-4,-0.0016 0.001,-0.0016 c 0.17423,-0.161364 0.3114,-0.342516 0.41077,-0.543744 V 72.687 c 0.10569,-0.203008 0.16013,-0.42237 0.16013,-0.652964 0,-0.260527 -0.0437,-0.508087 -0.13089,-0.742077 -0.0872,-0.2393 -0.21562,-0.456682 -0.38404,-0.651389 h -0.001 v -0.0016 c -0.17947,-0.194106 -0.38373,-0.344972 -0.61125,-0.451476 -0.22964,-0.112807 -0.48235,-0.169945 -0.75159,-0.169945 -0.31688,0 -0.59341,0.08893 -0.81993,0.265367 -0.25627,0.194115 -0.39184,0.454178 -0.39184,0.758637 0,0.260995 0.0792,0.488381 0.23625,0.673469 0.1589,0.187356 0.38225,0.284686 0.64747,0.284686 0.26126,0 0.4697,-0.05697 0.61287,-0.181773 0.14318,-0.124809 0.21158,-0.311583 0.21158,-0.542561 0,-0.176872 -0.0787,-0.330319 -0.17412,-0.476712 0.10398,-0.03816 0.20092,-0.04391 0.2519,-0.0418 0.21072,0.0087 0.3903,0.09822 0.55526,0.317414 0.13718,0.181944 0.2054,0.388882 0.2054,0.628913 0,0.29164 -0.12427,0.552451 -0.38115,0.794519 -0.30955,0.238461 -0.61603,0.354478 -0.92736,0.354478 -0.66001,0 -1.22174,-0.323031 -1.701584,-0.994037 v -0.0016 c -0.102463,-0.139476 -0.239037,-0.369221 -0.406251,-0.684116 l -0.001,-0.0012 C 99.113563,70.84999 98.934888,70.465968 98.738859,70.020659 l -0.01234,-0.0284 z m 5.61268,2.384346 v 0.07137 0.666372 h 2.27621 v -0.737738 z" /><path
           id="path4574"
           style="fill:#036f0e;fill-opacity:1;fill-rule:evenodd;stroke-width:0.264583;stop-color:#000000"
           d="m 70.931849,65.738106 a 2.6192415,2.6192415 0 0 0 -2.619478,2.619478 2.6192415,2.6192415 0 0 0 2.619478,2.618962 2.6192415,2.6192415 0 0 0 2.618962,-2.618962 2.6192415,2.6192415 0 0 0 -2.618962,-2.619478 z m 69.097081,0 a 2.6192415,2.6192415 0 0 0 -2.61897,2.619478 2.6192415,2.6192415 0 0 0 2.61897,2.618962 2.6192415,2.6192415 0 0 0 2.61947,-2.618962 2.6192415,2.6192415 0 0 0 -2.61947,-2.619478 z" /></g></g></g><metadata
     id="metadata4678"><rdf:RDF><cc:Work
         rdf:about=""><dc:title>Bangladesh Technical Education Board - বাংলাদেশ কারিগরি শিক্ষা বোর্ড</dc:title></cc:Work></rdf:RDF></metadata></svg>
